<?xml version="1.0" encoding="UTF-8" standalone="no"?>
<!-- Created with Inkscape (http://www.inkscape.org/) -->

<svg
   xmlns:dc="http://purl.org/dc/elements/1.1/"
   xmlns:cc="http://creativecommons.org/ns#"
   xmlns:rdf="http://www.w3.org/1999/02/22-rdf-syntax-ns#"
   xmlns:svg="http://www.w3.org/2000/svg"
   xmlns="http://www.w3.org/2000/svg"
   xmlns:sodipodi="http://sodipodi.sourceforge.net/DTD/sodipodi-0.dtd"
   xmlns:inkscape="http://www.inkscape.org/namespaces/inkscape"
   width="210mm"
   height="297mm"
   id="svg2"
   version="1.1"
   inkscape:version="0.47 r22583"
   sodipodi:docname="dessin.svg">
  <defs
     id="defs4">
    <inkscape:perspective
       sodipodi:type="inkscape:persp3d"
       inkscape:vp_x="0 : 526.18109 : 1"
       inkscape:vp_y="0 : 1000 : 0"
       inkscape:vp_z="744.09448 : 526.18109 : 1"
       inkscape:persp3d-origin="372.04724 : 350.78739 : 1"
       id="perspective10" />
    <filter
       inkscape:collect="always"
       id="filter3620">
      <feGaussianBlur
         inkscape:collect="always"
         stdDeviation="5.6747171"
         id="feGaussianBlur3622" />
    </filter>
    <filter
       inkscape:collect="always"
       id="filter3716"
       x="-0.20011424"
       width="1.4002285"
       y="-0.29231306"
       height="1.5846261">
      <feGaussianBlur
         inkscape:collect="always"
         stdDeviation="9.688084"
         id="feGaussianBlur3718" />
    </filter>
    <filter
       inkscape:collect="always"
       id="filter3732">
      <feGaussianBlur
         inkscape:collect="always"
         stdDeviation="22.26792"
         id="feGaussianBlur3734" />
    </filter>
    <filter
       inkscape:collect="always"
       id="filter3736"
       x="-0.23041411"
       width="1.4608282"
       y="-0.20925632"
       height="1.4185126">
      <feGaussianBlur
         inkscape:collect="always"
         stdDeviation="9.6880842"
         id="feGaussianBlur3738" />
    </filter>
    <filter
       inkscape:collect="always"
       id="filter3752"
       x="-0.13730844"
       width="1.2746169"
       y="-0.10656671"
       height="1.2131334">
      <feGaussianBlur
         inkscape:collect="always"
         stdDeviation="29.359573"
         id="feGaussianBlur3754" />
    </filter>
    <filter
       inkscape:collect="always"
       id="filter3756"
       x="-0.080957378"
       width="1.1619148"
       y="-0.23177721"
       height="1.4635544">
      <feGaussianBlur
         inkscape:collect="always"
         stdDeviation="7.0239109"
         id="feGaussianBlur3758" />
    </filter>
    <filter
       inkscape:collect="always"
       id="filter3772"
       x="-0.25778468"
       width="1.5155694"
       y="-0.39509297"
       height="1.7901859">
      <feGaussianBlur
         inkscape:collect="always"
         stdDeviation="5.6901872"
         id="feGaussianBlur3774" />
    </filter>
  </defs>
  <sodipodi:namedview
     id="base"
     pagecolor="#ffffff"
     bordercolor="#666666"
     borderopacity="1.0"
     inkscape:pageopacity="0.0"
     inkscape:pageshadow="2"
     inkscape:zoom="0.35"
     inkscape:cx="423.85811"
     inkscape:cy="702.82185"
     inkscape:document-units="px"
     inkscape:current-layer="layer1"
     showgrid="false"
     inkscape:window-width="1233"
     inkscape:window-height="683"
     inkscape:window-x="172"
     inkscape:window-y="0"
     inkscape:window-maximized="0" />
  <metadata
     id="metadata7">
    <rdf:RDF>
      <cc:Work
         rdf:about="">
        <dc:format>image/svg+xml</dc:format>
        <dc:type
           rdf:resource="http://purl.org/dc/dcmitype/StillImage" />
        <dc:title></dc:title>
      </cc:Work>
    </rdf:RDF>
  </metadata>
  <g
     inkscape:label="Calque 1"
     inkscape:groupmode="layer"
     id="layer1">
    <path
       transform="matrix(1.2140834,0,0,1.2403767,69.89159,-6.1745601)"
       d="m 532.85713,399.50504 a 312.14285,292.85715 0 1 1 -624.285704,0 312.14285,292.85715 0 1 1 624.285704,0 z"
       sodipodi:ry="292.85715"
       sodipodi:rx="312.14285"
       sodipodi:cy="399.50504"
       sodipodi:cx="220.71428"
       id="path3720"
       style="opacity:0.74000005;fill:#ffff00;fill-opacity:1;stroke:#dcdcdc;stroke-width:2.80200005;stroke-linecap:round;stroke-linejoin:round;stroke-miterlimit:4;stroke-opacity:1;stroke-dasharray:none;filter:url(#filter3732)"
       sodipodi:type="arc"
       inkscape:export-filename="/Users/Sebram/TEST.png"
       inkscape:export-xdpi="29.719835"
       inkscape:export-ydpi="29.719835" />
    <path
       transform="matrix(2.5109474,-1.9464424,1.4624387,2.0348016,-726.57281,294.28883)"
       d="m 285.71428,220.93361 a 60,37.142857 0 1 1 -120,0 60,37.142857 0 1 1 120,0 z"
       sodipodi:ry="37.142857"
       sodipodi:rx="60"
       sodipodi:cy="220.93361"
       sodipodi:cx="225.71428"
       id="path3722"
       style="opacity:0.74000005;fill:#ffff00;fill-opacity:1;stroke:#dcdcdc;stroke-width:2.80200005;stroke-linecap:round;stroke-linejoin:round;stroke-miterlimit:4;stroke-opacity:1;stroke-dasharray:none;filter:url(#filter3736)"
       sodipodi:type="arc"
       inkscape:export-filename="/Users/Sebram/TEST.png"
       inkscape:export-xdpi="29.719835"
       inkscape:export-ydpi="29.719835" />
    <path
       sodipodi:type="arc"
       style="opacity:0.84000005;fill:#00d4aa;fill-opacity:1;stroke:#dcdcdc;stroke-width:2.80200005;stroke-linecap:round;stroke-linejoin:round;stroke-miterlimit:4;stroke-opacity:1;stroke-dasharray:none"
       id="path3708"
       sodipodi:cx="220.71428"
       sodipodi:cy="399.50504"
       sodipodi:rx="312.14285"
       sodipodi:ry="292.85715"
       d="m 532.85713,399.50504 a 312.14285,292.85715 0 1 1 -624.285704,0 312.14285,292.85715 0 1 1 624.285704,0 z"
       transform="matrix(1.2140834,0,0,1.2403767,329.89159,-166.17456)"
       inkscape:export-filename="/Users/Sebram/TEST.png"
       inkscape:export-xdpi="29.719835"
       inkscape:export-ydpi="29.719835" />
    <path
       sodipodi:type="arc"
       style="opacity:0.84000005;fill:#d5fff6;fill-opacity:1;stroke:#dcdcdc;stroke-width:2.80200005;stroke-linecap:round;stroke-linejoin:round;stroke-miterlimit:4;stroke-opacity:1;stroke-dasharray:none;filter:url(#filter3716)"
       id="path3710"
       sodipodi:cx="225.71428"
       sodipodi:cy="220.93361"
       sodipodi:rx="60"
       sodipodi:ry="37.142857"
       d="m 285.71428,220.93361 a 60,37.142857 0 1 1 -120,0 60,37.142857 0 1 1 120,0 z"
       transform="matrix(2.5109474,-1.9464424,1.4624387,2.0348016,-746.57281,94.28883)"
       inkscape:export-filename="/Users/Sebram/TEST.png"
       inkscape:export-xdpi="29.719835"
       inkscape:export-ydpi="29.719835" />
    <path
       sodipodi:type="spiral"
       style="opacity:0.64000005;fill:#ffff00;stroke:#000000;stroke-width:1px;stroke-linecap:butt;stroke-linejoin:miter;stroke-opacity:1"
       id="path3626"
       sodipodi:cx="110"
       sodipodi:cy="419.50504"
       sodipodi:expansion="0.94"
       sodipodi:revolution="5"
       sodipodi:radius="179.98866"
       sodipodi:argument="-11.197567"
       sodipodi:t0="0"
       d="m 110,419.50504 c 1.3301,6.49509 -7.84857,5.11489 -10.552521,2.161 -6.681217,-7.29879 -1.094194,-18.37919 6.406581,-22.40631 12.99003,-6.97428 28.44064,1.49809 33.78403,14.17586 7.66827,18.19381 -3.95661,38.42966 -21.68398,44.91064 -23.230438,8.49286 -48.310981,-6.33563 -55.859901,-29.03079 -9.370792,-28.17246 8.66137,-58.09184 36.261381,-66.67191 33.04809,-10.27373 67.78389,10.94818 77.3721,43.40143 11.18918,37.87208 -13.20473,77.3977 -50.4675,87.97801 C 82.606653,506.13392 38.318067,478.5863 26.757682,436.55185 13.722006,389.15313 44.405651,340.12737 91.178453,327.59642 143.29068,313.63499 197.0293,347.43796 210.52297,398.91939 225.41006,455.71699 188.5034,514.14568 132.34013,528.59545 70.882506,544.40735 7.7850398,504.41162 -7.6150664,443.59089 -24.350544,377.49628 18.720609,309.74997 84.176466,293.40461 154.88693,275.74709 227.26341,321.88089 244.54947,391.95126 263.12734,467.25807 213.94287,544.24715 139.2771,562.46979 59.392079,581.96622 -22.193082,529.74236 -41.348525,450.49901 -61.761679,366.05269 -6.5090443,279.88706 77.295202,259.8023 166.28695,238.47428 257.01828,296.74565 278.02913,385.09511 300.27015,478.61736 238.98957,573.90038 146.10967,595.8343"
       transform="translate(26,100)"
       inkscape:export-filename="/Users/Sebram/TEST.png"
       inkscape:export-xdpi="29.719835"
       inkscape:export-ydpi="29.719835" />
    <path
       sodipodi:type="spiral"
       style="fill:#cccccc;stroke:#000000;stroke-width:1px;stroke-linecap:butt;stroke-linejoin:miter;stroke-opacity:1;opacity:0.49420849000000000;"
       id="path3630"
       sodipodi:cx="385.71429"
       sodipodi:cy="309.50504"
       sodipodi:expansion="0.94"
       sodipodi:revolution="1.9"
       sodipodi:radius="177.97041"
       sodipodi:argument="-11.198077"
       sodipodi:t0="0"
       d="m 385.71429,309.50504 c 3.27395,15.94579 -19.26425,12.56846 -25.90698,5.31914 -16.41359,-17.9124 -2.70961,-45.1252 15.70205,-55.02242 31.8858,-17.14028 69.83244,3.64265 82.96797,34.76378 18.85076,44.66181 -9.66656,94.36164 -53.18458,110.29664 -57.02725,20.88169 -118.62629,-15.4954 -137.18965,-71.20955 -23.04348,-69.16034 21.19356,-142.64425 88.94935,-163.74554 81.13038,-25.26657 166.44406,26.79625 190.02672,106.46697 15.51856,52.42728 3.51566,110.15269 -29.93629,153.13095"
       inkscape:export-filename="/Users/Sebram/TEST.png"
       inkscape:export-xdpi="29.719835"
       inkscape:export-ydpi="29.719835" />
    <path
       style="fill:#aa0000;fill-opacity:1;stroke:#dcdcdc;stroke-width:2.80200005;stroke-linecap:round;stroke-linejoin:round;stroke-miterlimit:4;stroke-opacity:1;stroke-dasharray:none"
       id="path2816"
       d="m 173.74724,500.89115 c 23.91427,-1.50368 47.61694,-7.43758 70.12806,-15.51449 6.73715,-2.41726 13.2896,-5.3213 19.9344,-7.98195 21.25737,-9.99919 42.64705,-21.2962 58.90045,-38.67461 7.79785,-8.3376 9.8264,-12.47222 15.89603,-21.98855 10.21785,-19.07883 21.00257,-37.91286 33.70708,-55.46821 8.57242,-11.84554 11.03054,-14.29469 20.32464,-25.16808 10.20361,-10.80434 21.41657,-21.45722 35.56166,-26.85148 2.56951,-0.97989 5.20229,-1.92528 7.92982,-2.27615 2.76138,-0.35522 5.56695,0.12125 8.35043,0.18187 2.55873,1.09544 5.32539,1.79606 7.67619,3.28631 12.40098,7.8614 19.25924,23.78916 23.19288,37.24222 1.30559,4.46512 2.17371,9.04668 3.26057,13.57003 0.60969,4.81264 1.52717,9.59622 1.82909,14.43792 1.4112,22.63058 -3.58365,45.91009 -13.80552,66.15286 -2.9387,5.8196 -6.71019,11.17981 -10.06529,16.76971 -4.4919,5.16757 -8.60057,10.69501 -13.47571,15.5027 -19.50849,19.23855 -47.54653,33.96048 -74.53146,38.91137 -6.99148,1.28272 -14.1571,1.29665 -21.23565,1.94497 -20.58884,-2.44764 -23.00996,-1.40216 -42.43924,-9.00523 -19.67528,-7.69934 -37.77343,-19.96184 -56.46908,-29.68676 -5.74733,-2.98959 -11.65624,-5.65772 -17.48436,-8.48657 -5.35432,-2.37002 -10.70864,-4.74003 -16.06296,-7.11005 0,0 0.53925,-0.0625 0.53925,-0.0625 l 0,0 c 5.35439,2.37065 10.70878,4.7413 16.06317,7.11195 5.82823,2.82983 11.73707,5.49932 17.48468,8.48949 18.69305,9.72496 36.79144,21.98393 56.46778,29.67568 18.98733,7.4224 21.54973,6.51755 41.36384,8.99397 7.0781,-0.6451 14.24305,-0.65542 21.23429,-1.93531 26.97879,-4.93901 55.0203,-19.65271 74.52827,-38.87982 4.87472,-4.80454 8.98341,-10.32881 13.47512,-15.49321 3.35497,-5.58718 7.12633,-10.94457 10.0649,-16.76155 10.22102,-20.23279 15.21626,-43.50353 13.80515,-66.12484 -0.3019,-4.83973 -1.21932,-9.62132 -1.82898,-14.43197 -1.0868,-4.52153 -1.95478,-9.10132 -3.26041,-13.56457 -3.93028,-13.43555 -10.78767,-29.36359 -23.18949,-37.19725 -2.35024,-1.48454 -5.11561,-2.17727 -7.67341,-3.26591 -2.42524,-0.0652 -4.87182,-0.52315 -7.27572,-0.19557 -2.7237,0.37116 -5.35949,1.29016 -7.92876,2.26747 -14.14559,5.38081 -25.35754,16.03003 -35.55955,26.8286 -9.2936,10.87033 -11.75242,13.31964 -20.32426,25.16227 -12.70567,17.55381 -23.49202,36.38668 -33.70697,55.46645 -6.06889,9.51987 -8.09993,13.66008 -15.89697,22.00197 -16.25132,17.38692 -37.64235,28.69054 -58.90248,38.69483 -6.64497,2.66197 -13.1975,5.5674 -19.93489,7.98592 -22.62539,8.12181 -47.11165,14.31471 -71.20276,15.531 0,0 0.53617,-0.0849 0.53617,-0.0849 z"
       inkscape:export-filename="/Users/Sebram/TEST.png"
       inkscape:export-xdpi="29.719835"
       inkscape:export-ydpi="29.719835" />
    <path
       style="fill:#aa0000;fill-opacity:1;stroke:#dcdcdc;stroke-width:2.80200005;stroke-linecap:round;stroke-linejoin:round;stroke-miterlimit:4;stroke-opacity:1;stroke-dasharray:none"
       id="path2818"
       d="m 215.79875,395.40391 c 11.19881,-12.82213 24.96319,-23.54312 39.54398,-32.28159 3.78225,-2.26676 7.7333,-4.23914 11.59996,-6.35871 8.63638,-3.98514 21.54222,-10.57066 31.44867,-6.15348 11.73276,5.2315 15.20849,27.26389 17.76979,37.35716 7.00487,38.39579 7.94508,77.51061 9.25726,116.41357 1.0464,9.64151 -0.0441,22.9454 8.92088,29.54256 4.22297,3.10759 7.19785,3.07899 12.2392,4.08233 2.04098,-0.0625 4.10208,0.1051 6.12294,-0.18748 12.17478,-1.76267 23.90141,-7.87303 33.06422,-15.97617 2.22316,-1.96605 4.13609,-4.25724 6.20413,-6.38586 1.66526,-2.15735 3.33051,-4.31471 4.99577,-6.47206 -0.3247,-2.22526 -1.96846,-4.65873 -0.9741,-6.67577 1.36638,-2.77167 5.34636,-3.38424 7.16509,-5.88253 1.46043,-2.00612 1.29083,-7.75645 0.32442,-10.01371 -0.59565,-1.39127 -1.83987,-2.40345 -2.75981,-3.60518 -1.65796,-0.89688 -3.21429,-2.01455 -4.97386,-2.69064 -17.2087,-6.61221 -36.3448,-0.84362 -53.22494,3.55901 -26.007,7.60707 -50.97879,18.23176 -76.56308,27.07857 -10.19325,3.18195 -22.13979,6.92128 -32.07229,0.64026 -7.045,-4.45505 -9.1964,-8.89123 -14.16887,-15.64352 -2.21662,-4.11753 -4.68003,-8.11145 -6.64986,-12.35259 -4.18425,-9.00889 -7.5302,-19.16491 -10.15727,-28.72457 -2.27082,-8.2633 -4.63456,-18.7592 -5.43511,-27.36431 -0.37711,-4.05349 -0.20662,-8.13937 -0.30993,-12.20905 0,0 1.54285,-0.004 1.54285,-0.004 l 0,0 c 0.10325,4.06307 -0.0671,8.14235 0.30975,12.18922 0.8006,8.59613 3.16476,19.08789 5.4346,27.34189 2.62637,9.55045 5.97104,19.69581 10.15609,28.69453 1.96919,4.23417 4.43241,8.22054 6.64862,12.33081 4.97101,6.72782 7.11211,11.14654 14.16112,15.55874 9.25864,5.79526 19.51104,2.3807 29.00925,-0.64802 25.58906,-8.8389 50.55948,-19.47116 76.5646,-27.09038 14.20341,-3.71709 25.13338,-6.8029 39.99556,-6.46033 5.09716,0.11749 11.42934,1.03101 16.29294,2.93886 1.76598,0.69275 3.31963,1.83696 4.97944,2.75544 2.58731,3.44658 3.65816,3.68299 3.5088,8.31865 -0.0597,1.85295 -1.27275,3.61467 -1.07123,5.45759 0.24783,2.26641 3.37519,4.37 2.36961,6.41618 -2.72894,5.55293 -12.6538,5.12658 -13.55987,12.67554 -2.06869,2.13617 -3.98169,4.43497 -6.20605,6.40852 -8.80316,7.81055 -21.25098,14.65352 -33.07618,16.07269 -3.03724,0.36451 -6.11714,0.10702 -9.17572,0.16053 -5.07611,-1.04026 -8.01452,-1.01573 -12.24933,-4.17742 -8.94178,-6.67588 -7.883,-19.95882 -8.92522,-29.65321 -1.31182,-38.89189 -2.25074,-77.99601 -9.2568,-116.38041 -3.03894,-11.95858 -5.09132,-30.40078 -17.75438,-37.17467 -8.17037,-4.3706 -21.32659,2.98863 -28.38766,6.09735 -3.86625,2.11568 -7.81682,4.08407 -11.59875,6.34703 -14.57656,8.72203 -28.32717,19.43146 -39.53934,32.22418 0,0 -1.53989,-0.0956 -1.53989,-0.0956 z"
       inkscape:export-filename="/Users/Sebram/TEST.png"
       inkscape:export-xdpi="29.719835"
       inkscape:export-ydpi="29.719835" />
    <path
       style="fill:#aa0000;fill-opacity:1;stroke:#dcdcdc;stroke-width:2.80200005;stroke-linecap:round;stroke-linejoin:round;stroke-miterlimit:4;stroke-opacity:1;stroke-dasharray:none"
       id="path2820"
       d="m 49.868641,429.34353 c 17.247659,-14.0775 34.658253,-28.08202 54.586459,-38.2594 5.00884,-2.55802 10.23467,-4.66686 15.352,-7.00029 4.96929,-1.55271 9.80526,-3.62466 14.90788,-4.65814 4.57002,-0.92561 9.27962,-1.38269 13.93821,-1.18435 25.62422,1.09089 51.47612,0.84215 76.77661,5.04635 4.86132,0.80781 8.06086,5.8323 11.258,9.58241 8.24429,9.67023 11.18227,19.63366 15.93639,31.19904 6.15856,16.88774 10.59036,34.31789 15.93389,51.46192 2.4502,7.86115 5.11878,16.44833 8.79231,23.90721 1.35079,2.74269 3.11715,5.26035 4.67573,7.89053 4.57644,4.81053 5.24225,6.38133 11.1891,9.33766 4.21699,2.09638 10.46539,3.65729 15.03642,4.20512 3.23974,0.38827 13.03983,0.46811 9.77693,0.4814 -18.71012,0.0763 -37.42005,-0.19499 -56.13008,-0.29249 0,0 66.66301,10.55362 66.66301,10.55362 l 0,0 c -25.81323,-0.0925 -51.63089,0.2097 -77.43969,-0.27764 -12.04508,-0.22745 -25.98545,-4.10289 -33.71023,-14.0026 -1.69126,-2.16743 -2.78832,-4.73896 -4.18248,-7.10844 -0.93259,-2.93642 -2.05111,-5.82014 -2.79779,-8.80925 -1.70198,-6.81339 -3.13466,-17.73962 -4.33305,-24.37354 -3.09955,-17.15799 -6.82487,-34.24807 -13.96633,-50.26236 -6.80208,-12.24608 -8.905,-18.68289 -19.43266,-27.94078 -3.43322,-3.01913 -15.95013,-6.20823 -11.53983,-7.41295 16.36756,-4.47095 33.92243,-1.51004 50.79394,-3.30968 4.95231,-0.52825 -9.97797,-1.02433 -14.93233,-0.51559 -5.30121,0.54437 -10.37711,2.43155 -15.56567,3.64732 -5.04614,2.12976 -10.22101,3.97712 -15.13842,6.38927 -15.26779,7.48937 -29.62151,18.00133 -39.24331,32.24182 -0.97135,1.43763 -1.62523,3.06592 -2.43785,4.59888 0,0 -74.767159,-5.13505 -74.767159,-5.13505 z"
       inkscape:export-filename="/Users/Sebram/TEST.png"
       inkscape:export-xdpi="29.719835"
       inkscape:export-ydpi="29.719835" />
    <path
       style="fill:#aa0000;fill-opacity:1;stroke:#dcdcdc;stroke-width:2.80200005;stroke-linecap:round;stroke-linejoin:round;stroke-miterlimit:4;stroke-opacity:1;stroke-dasharray:none"
       id="path2824"
       d="m 183.15979,300.397 c 20.03741,-11.40466 40.25505,-22.55569 61.20054,-32.22361 4.66812,-2.15469 9.40788,-4.15065 14.11182,-6.22598 7.29945,-2.9197 15.52707,-6.4807 23.18942,-8.60062 25.5016,-7.05547 76.38506,-1.26415 85.44646,-0.54153 3.02743,0.24143 5.31189,3.13049 7.3547,5.37785 2.31175,2.54322 3.65016,5.8245 5.47524,8.73675 1.54047,3.27915 3.32761,6.45337 4.6214,9.83744 3.12655,8.17789 4.76417,16.18262 6.09194,24.8282 2.54608,16.57839 2.75923,33.33767 3.37302,50.06256 0.24435,34.0714 -1.08528,68.12549 -1.26946,102.19378 0.47228,14.15246 0.60951,28.80152 4.89864,42.46319 2.35961,7.5158 3.46813,8.47258 7.48803,15.20817 1.966,2.22406 3.70245,4.67438 5.89799,6.67217 10.407,9.4696 26.68579,15.28535 40.48801,16.61622 4.62077,0.44555 9.2841,0.0756 13.92616,0.11333 -15.96611,-0.58696 -32.21517,1.28873 -47.89831,-1.76088 -5.35212,-1.04073 10.64866,-2.51118 15.72738,-4.49481 17.50645,-6.83761 32.83116,-18.62267 44.39321,-33.39697 4.31671,-5.51601 7.64895,-11.73606 11.47343,-17.60409 2.932,-6.46541 6.28749,-12.75503 8.79601,-19.39622 8.56633,-22.67898 12.34794,-47.83024 9.48072,-71.98327 -0.49355,-4.15758 -1.59873,-8.21952 -2.39809,-12.32927 -3.8305,-12.06019 -1.68491,-6.51113 -6.21079,-16.73283 0,0 70.03893,-1.95622 70.03893,-1.95622 l 0,0 c 1.62618,11.24653 0.96711,5.21934 1.79413,18.10065 -0.0402,4.33467 0.0928,8.67441 -0.12056,13.00401 -1.24299,25.21967 -6.39485,50.54013 -15.04661,74.26508 -2.50029,6.85632 -5.64815,13.45885 -8.47222,20.18827 -3.50817,6.21012 -6.56664,12.69671 -10.52451,18.63034 -10.44598,15.6606 -24.28757,28.60491 -41.22725,36.99575 -4.80608,2.38063 -9.68938,5.26651 -15.03192,5.73881 -25.95465,2.29448 -52.08516,1.66455 -78.12774,2.49683 -4.94895,-0.36019 -9.93937,-0.34678 -14.84685,-1.08055 -16.02284,-2.39576 -33.07479,-8.85215 -44.58855,-20.64101 -2.3511,-2.40728 -4.19594,-5.26163 -6.2939,-7.89244 -4.02057,-7.41489 -5.68503,-9.2399 -7.53484,-17.51851 -0.68417,-3.06195 -0.93389,-6.20986 -1.18997,-9.33685 -0.94704,-11.56416 -0.19053,-23.18288 0.78905,-34.71263 3.42227,-33.68944 6.67425,-67.56435 4.76862,-101.46168 -0.5448,-5.94579 -0.87108,-11.91567 -1.63441,-17.83737 -0.71941,-5.58094 -1.73752,-11.12188 -2.8106,-16.64573 -2.48781,-12.80641 -5.60292,-25.80014 -11.75558,-37.41761 -1.58422,-2.99134 -3.62138,-5.71989 -5.43208,-8.57984 -2.14949,-2.03237 -3.99487,-4.44466 -6.44849,-6.09711 -15.71268,-10.58208 -86.27679,-2.16693 52.97025,-4.12923 3.57492,-0.0504 -7.17352,0.0657 -10.70926,0.59593 -9.25634,1.3881 -17.48976,4.51916 -26.3544,7.40644 -4.90831,1.94093 -9.89049,3.70455 -14.72492,5.82278 -17.62448,7.72224 -35.31049,17.26237 -48.56112,31.46932 0,0 -74.58267,-6.22701 -74.58267,-6.22701 z"
       inkscape:export-filename="/Users/Sebram/TEST.png"
       inkscape:export-xdpi="29.719835"
       inkscape:export-ydpi="29.719835" />
    <path
       style="fill:#aa0000;fill-opacity:1;stroke:#dcdcdc;stroke-width:2.80200005;stroke-linecap:round;stroke-linejoin:round;stroke-miterlimit:4;stroke-opacity:1;stroke-dasharray:none"
       id="path2826"
       d="m 297.24542,701.53066 c -0.17277,-5.78171 -1.22752,-11.49695 -1.76274,-17.24555 -0.63923,-6.86583 -1.00041,-13.75472 -1.50376,-20.63185 -1.15315,-18.65256 -3.06369,-37.18156 -2.79125,-55.89087 0.0708,-4.86062 0.0278,-9.73477 0.46835,-14.57591 0.45774,-5.0297 1.48142,-9.99175 2.22212,-14.98762 7.84348,-32.11338 25.27756,-60.43606 45.96351,-85.87531 5.2233,-6.42354 10.86424,-12.4959 16.29636,-18.74385 21.41862,-22.42566 43.62521,-44.51749 69.33738,-62.06785 12.2268,-8.34564 15.87848,-9.8121 28.4596,-16.36516 14.78359,-6.83268 30.45866,-11.35296 46.61353,-13.25599 0,0 72.10887,11.05937 72.10887,11.05937 l 0,0 c -19.21353,-0.0844 -38.23309,3.02835 -56.41337,9.36276 -14.28844,5.65622 -19.03258,6.99899 -32.87018,14.85282 -27.4554,15.58289 -51.35741,36.65457 -72.16998,60.25312 -4.92491,6.14733 -10.07689,12.11944 -14.77473,18.44199 -18.48485,24.87769 -32.70444,52.68299 -38.82303,83.22037 -0.62132,4.78006 -1.45192,9.53755 -1.86397,14.34017 -1.98241,23.10587 0.7467,46.48176 5.04122,69.16145 0.93524,3.70903 1.75741,7.44841 2.80572,11.12707 1.30563,4.58164 3.5199,10.77726 5.31637,15.36689 0.49911,1.27512 2.5159,6.17096 3.4124,7.81793 0.33429,0.61413 0.78786,1.1554 1.18179,1.7331 0,0 -76.25421,2.90292 -76.25421,2.90292 z"
       inkscape:export-filename="/Users/Sebram/TEST.png"
       inkscape:export-xdpi="29.719835"
       inkscape:export-ydpi="29.719835" />
    <path
       style="fill:#800000;fill-opacity:1;stroke:#dcdcdc;stroke-width:2.80200005000000019;stroke-linecap:round;stroke-linejoin:round;stroke-miterlimit:4;stroke-opacity:1;stroke-dasharray:none"
       id="path2828"
       d="m 265.06752,306.87382 c -12.19929,19.49747 -16.61187,41.73703 -20.86956,63.99721 -1.77158,14.8058 -3.29913,22.39152 -2.47283,37.58084 1.26653,23.28164 7.45332,46.75005 16.72407,68.07887 3.54011,8.14459 8.04207,15.83641 12.06311,23.75462 12.03513,18.51941 16.54145,27.29057 31.80595,43.43865 12.0269,12.72307 26.83291,24.56949 41.71788,33.75936 20.0849,12.40026 27.39377,14.07846 49.33335,22.60052 25.9027,6.89287 30.2042,9.19285 57.35887,11.63679 10.08786,0.90791 20.25949,1.82218 30.36472,1.13404 7.00444,-0.47698 -24.96758,4.01069 -20.98726,-1.77262 4.89281,-7.10911 17.10675,-2.53835 25.45634,-4.72084 7.57175,-1.97917 14.78005,-5.15211 22.17007,-7.72817 6.4104,-3.47772 13.11102,-6.4669 19.2312,-10.43316 15.96094,-10.34368 29.15923,-24.35256 39.74801,-40.0452 6.77159,-10.03554 7.88313,-13.4262 12.67809,-23.8223 1.15467,-2.97812 2.30935,-5.95623 3.46403,-8.93434 0,0 67.86081,3.22391 67.86081,3.22391 l 0,0 c -1.94269,3.04885 -3.88537,6.09771 -5.82805,9.14656 -9.24624,13.35408 -18.36928,26.86818 -29.45605,38.81235 -15.21927,16.39628 -32.61223,29.84657 -53.23134,38.83977 -8.10278,2.74789 -16.02482,6.10141 -24.30834,8.24367 -35.86018,9.27408 -66.60632,6.73356 -105.81892,6.72544 -30.69646,-0.006 -61.1174,-4.99766 -90.39202,-14.10598 -22.71168,-9.16232 -29.35315,-10.58623 -49.96537,-23.84219 -15.21977,-9.788 -29.61129,-21.78349 -41.83041,-35.14322 -14.85396,-16.24053 -20.0883,-26.07707 -31.9492,-44.48957 -10.72326,-20.15323 -15.47557,-27.50748 -23.52023,-48.81092 -5.70511,-15.10796 -9.67532,-29.41399 -11.75829,-45.40775 -2.01573,-15.47736 -1.15547,-23.35074 -0.63224,-38.61512 1.61756,-16.21805 1.43697,-15.70181 3.46874,-31.28601 1.2906,-9.89926 3.16959,-19.87877 3.55249,-29.8809 0.0408,-1.06495 -0.11248,-2.12848 -0.16871,-3.19271 0,0 76.19109,1.2584 76.19109,1.2584 z"
       inkscape:export-filename="/Users/Sebram/TEST.png"
       inkscape:export-xdpi="29.719835"
       inkscape:export-ydpi="29.719835" />
    <path
       style="fill:#000080;fill-opacity:1;stroke:#dcdcdc;stroke-width:2.80200005000000019;stroke-linecap:round;stroke-linejoin:round;stroke-miterlimit:4;stroke-opacity:1;stroke-dasharray:none"
       id="path2830"
       d="m 232.39286,634.81604 c -2.06449,8.71978 -4.95166,17.22731 -9.97972,24.73166 -1.71046,2.55285 -3.70229,4.90551 -5.55343,7.35827 -8.66352,10.50318 -18.6182,20.0425 -30.00095,27.57712 -7.26963,4.81202 -9.79611,5.74064 -17.50064,9.49627 -2.89506,1.0488 -5.71384,2.33863 -8.68517,3.1464 -2.92558,0.79533 -5.91326,1.64277 -8.94502,1.64645 -25.74261,0.0312 -51.56368,0.65377 -77.212486,-1.54201 -3.427748,-0.29345 -5.968703,-3.51077 -8.537651,-5.79902 -6.752486,-6.01467 -9.397721,-11.44822 -14.191244,-19.03831 -10.504808,-20.91867 -17.40244,-43.96833 -17.554934,-67.536 -0.03005,-4.64482 0.489493,-9.27693 0.73424,-13.91539 2.241963,-19.77241 9.648049,-38.25083 20.760478,-54.67254 1.587498,-2.34597 3.356768,-4.56366 5.035151,-6.8455 4.410178,-5.88631 9.901232,-10.44908 16.15814,-14.18867 0,0 72.975696,8.60331 72.975696,8.60331 l 0,0 c -7.45269,2.02983 -14.14315,5.24551 -19.91609,10.54179 -2.06013,2.02528 -4.26146,3.9163 -6.18038,6.07584 -12.77854,14.38091 -20.83,31.98 -23.963848,50.90635 -0.874735,11.24138 -1.740629,15.24678 -0.368313,26.57394 1.583951,13.07397 5.792341,27.33836 11.695381,39.12012 1.94438,3.88076 4.4264,7.46796 6.6396,11.20195 5.55928,6.73125 8.3031,11.36593 15.94109,15.78783 2.77951,1.60915 12.19526,3.14954 8.99738,3.44709 -19.67181,1.83036 -39.50412,0.86774 -59.257588,1.22936 -2.99189,0.0548 6.011226,0.12598 8.971863,-0.30881 3.05627,-0.44882 5.980311,-1.55074 8.970465,-2.32611 3.00262,-1.18203 6.072,-2.20681 9.00785,-3.54608 8.9709,-4.09233 17.61605,-9.63383 24.88042,-16.3259 4.06206,-3.74205 8.63352,-9.3525 12.23326,-13.58152 1.42084,-2.17374 2.98029,-4.26296 4.26253,-6.52124 3.58071,-6.30633 6.47821,-14.06887 4.36963,-21.29665 0,0 76.21429,0 76.21429,0 z"
       inkscape:export-filename="/Users/Sebram/TEST.png"
       inkscape:export-xdpi="29.719835"
       inkscape:export-ydpi="29.719835" />
    <path
       style="fill:none;stroke:#000000;stroke-width:1px;stroke-linecap:butt;stroke-linejoin:miter;stroke-opacity:1"
       d="m 134.28571,299.50504 c 63.74556,123.22189 91.35035,514.80106 134.28572,162.85714 l 50,-150 c 0,0 285.71429,250.00001 55.71429,255.71429 -230.00001,5.71429 32.85714,-130 32.85714,-130 0,0 120.2852,83.47577 0,0 C 267.1564,340.92837 71.111753,564.95212 100,553.79075 -158.75867,327.41243 385.97181,417.36736 92.857139,296.6479 l 225.714281,17.14285 -51.42857,150"
       id="path3624"
       sodipodi:nodetypes="cccscscccc"
       inkscape:export-filename="/Users/Sebram/TEST.png"
       inkscape:export-xdpi="29.719835"
       inkscape:export-ydpi="29.719835" />
    <path
       style="fill:#0000ff;fill-opacity:1;stroke:#dcdcdc;stroke-width:2.80200005000000019;stroke-linecap:round;stroke-linejoin:round;stroke-miterlimit:4;stroke-opacity:1;stroke-dasharray:none"
       id="path2832"
       d="m 159.19047,626.70941 c 2.38774,-9.21167 5.25591,-18.34622 9.16261,-27.03815 1.31195,-2.91893 2.79056,-5.76005 4.18584,-8.64007 13.23627,-24.97034 32.98606,-45.29416 52.66128,-65.21565 14.92585,-14.31002 31.66834,-26.90491 50.52321,-35.60243 12.34469,-5.69446 16.82227,-6.43431 29.98595,-10.23681 5.19147,-1.13612 10.33569,-2.51511 15.57441,-3.40836 28.35678,-4.83509 72.65125,-2.03674 92.33185,-1.12298 4.65217,0.216 9.13764,1.95375 13.51377,3.54711 9.89715,3.60357 14.03422,7.1038 22.63201,12.85567 7.98373,8.03132 11.17803,9.98459 16.35956,20.46793 4.46752,9.03872 7.40034,21.17349 9.41321,30.87742 2.91012,14.02951 3.72551,22.60709 5.55707,36.87613 3.91666,30.69709 5.75262,61.66079 10.3676,92.26432 2.99005,12.38449 6.89111,29.74489 20.74027,34.56681 2.53099,0.88122 5.28234,0.90925 7.92351,1.36387 -99.39945,-2.01311 -60.87113,3.34426 -38.13069,-5.12505 7.52249,-2.80163 14.47463,-6.94499 21.71195,-10.41749 0,0 56.75413,5.88592 56.75413,5.88592 l 0,0 c -5.46303,4.09564 -10.59833,8.66945 -16.38908,12.28693 -28.18477,17.60699 -56.37283,6.30002 -92.31048,6.24612 -3.16393,-1.21225 -6.55863,-1.9407 -9.49179,-3.63674 -10.01898,-5.79325 -14.08119,-19.28111 -15.90905,-29.87035 -0.60639,-3.51297 -0.78141,-7.0869 -1.17212,-10.63034 -0.21495,-4.03281 -0.53665,-8.06135 -0.64485,-12.09843 -0.11798,-4.40204 0.006,-8.80736 -0.0335,-13.2108 -0.20079,-22.28621 -0.66827,-44.60129 -3.45727,-66.74508 -1.02984,-6.16086 -1.82444,-12.36568 -3.08951,-18.48256 -3.29482,-15.93111 -7.9193,-32.30562 -16.88117,-46.09741 -5.92128,-9.11249 -9.08469,-10.97719 -16.98756,-17.92502 -8.80104,-5.37368 -11.40783,-7.71912 -21.4816,-10.76446 -4.02936,-1.21809 -16.55185,-2.16264 -12.36277,-2.57634 16.13462,-1.59342 32.41585,-1.01846 48.62896,-1.00522 5.14964,0.004 -10.30735,0.37133 -15.4144,1.03232 -5.22679,0.67649 -10.3528,1.98174 -15.52919,2.97261 -12.51921,3.3649 -17.15673,4.16068 -29.07927,9.12471 -18.94165,7.88648 -36.00321,19.52793 -50.97643,33.48514 -3.65928,3.69657 -7.42073,7.29473 -10.97785,11.08971 -14.43486,15.40008 -27.10634,32.64422 -35.5719,52.06216 -3.99911,10.36385 -8.05949,21.54409 -6.23199,32.84486 0,0 -75.90477,0 -75.90477,0 z"
       inkscape:export-filename="/Users/Sebram/TEST.png"
       inkscape:export-xdpi="29.719835"
       inkscape:export-ydpi="29.719835" />
    <path
       style="fill:#ffaaaa;fill-opacity:1;stroke:#dcdcdc;stroke-width:2.80200005000000019;stroke-linecap:round;stroke-linejoin:round;stroke-miterlimit:4;stroke-opacity:1;stroke-dasharray:none"
       id="path2834"
       d="m 64.277173,521.70659 c -2.042664,-8.6002 -5.239219,-16.85035 -7.501607,-25.38555 -3.324913,-10.59291 -6.816692,-21.11412 -10.975916,-31.41123 -1.126519,-3.48835 -2.667233,-6.88956 -3.49226,-10.47549 -0.649002,-2.82086 -0.783339,-5.78121 -1.054261,-8.65426 -0.0023,-2.98407 -0.329395,-5.91312 -0.823811,-8.84791 0,0 75.324112,-0.88733 75.324112,-0.88733 l 0,0 c 0.22768,3.07959 0.27598,6.14955 0.30773,9.23594 0.21214,5.82851 1.19281,11.6229 2.63744,17.26912 2.85681,10.71795 6.46542,21.20578 10.13805,31.66694 2.78241,8.20854 5.72831,16.72377 11.23341,23.55147 0,0 -75.792887,3.9383 -75.792887,3.9383 z"
       inkscape:export-filename="/Users/Sebram/TEST.png"
       inkscape:export-xdpi="29.719835"
       inkscape:export-ydpi="29.719835" />
    <path
       style="fill:#ffaaaa;fill-opacity:1;stroke:#dcdcdc;stroke-width:2.80200005;stroke-linecap:round;stroke-linejoin:round;stroke-miterlimit:4;stroke-opacity:1;stroke-dasharray:none"
       id="path2836"
       d="m 483.22734,686.93356 c 7.05506,-5.33447 13.44006,-11.65101 18.97601,-18.54463 4.85894,-5.4016 7.45016,-11.8625 9.23354,-18.7854 3.00014,-10.39508 3.35789,-21.17612 3.53162,-31.9136 -1.15229,-18.70514 -5.43558,-37.08468 -10.32998,-55.12175 -5.83093,-19.03267 -11.2203,-38.16403 -15.39201,-57.63247 -2.69326,-15.67753 -6.43546,-31.26559 -8.09746,-47.11134 -0.28094,-2.67851 -0.35264,-5.37486 -0.52896,-8.06228 -0.0631,-11.59316 2.58554,-22.96313 9.48926,-32.4405 1.26619,-1.73821 2.7412,-3.31424 4.11181,-4.97136 10.54059,-10.21229 21.86656,-14.44542 35.85981,-17.65634 29.2446,-4.68649 60.11379,-1.62615 88.9345,0.12202 2.20859,0.13397 3.86403,2.1674 5.69724,3.40641 5.91641,3.99872 5.35896,4.06118 10.22721,9.47642 3.92187,6.55117 5.61679,8.67666 8.21749,16.20895 1.30317,3.7743 2.18433,7.68207 3.18825,11.54674 3.36518,12.95458 5.63676,26.04523 8.00253,39.20821 2.48216,15.75585 5.65675,31.39208 8.26285,47.12576 0.17825,0.98511 0.3565,1.97022 0.53475,2.95533 0,0 -74.51437,0.11291 -74.51437,0.11291 l 0,0 c 0.14894,-0.94946 0.29787,-1.89893 0.4468,-2.8484 1.68877,-15.37565 2.03848,-30.88495 0.0356,-46.26472 -0.65923,-4.26974 -1.13325,-8.57223 -1.97769,-12.80923 -3.5936,-18.03098 -9.70293,-36.11495 -22.83438,-49.46804 -3.98028,-3.12636 -5.87555,-5.08181 -10.56408,-7.01157 -1.86081,-0.76589 -7.81103,-1.6001 -5.80011,-1.67378 21.69841,-0.79502 43.42571,-0.22972 65.137,-0.50031 2.01748,-0.0251 -4.0313,-0.28608 -6.04832,-0.2361 -2.07318,0.0514 -4.13201,0.35969 -6.19802,0.53954 -13.11022,1.83329 -24.51819,4.53247 -35.12042,12.99922 -1.31428,1.33864 -2.72978,2.58491 -3.94282,4.01593 -6.88934,8.12725 -10.61065,17.21927 -11.09437,27.89265 0.17945,18.12967 2.57494,36.21157 6.3769,53.92885 4.63332,19.26874 10.50314,38.20622 15.42315,57.40326 4.76346,18.71602 10.28003,37.33262 12.96138,56.49719 0.29574,2.52604 0.68536,5.04284 0.88722,7.57811 0.69805,8.76699 0.25417,17.68526 -1.15567,26.35382 -1.78493,8.86016 -4.05846,15.15342 -10.0094,22.2029 -1.71209,1.99819 -4.61771,5.43036 -6.38741,7.32344 -3.55304,3.80076 -7.49478,7.44144 -9.9435,12.10368 0,0 -75.59591,-5.94952 -75.59591,-5.94952 z"
       inkscape:export-filename="/Users/Sebram/TEST.png"
       inkscape:export-xdpi="29.719835"
       inkscape:export-ydpi="29.719835" />
    <path
       style="opacity:0.84000005;fill:#800000;stroke:#000000;stroke-width:1px;stroke-linecap:butt;stroke-linejoin:miter;stroke-opacity:1"
       d="M 55.185375,553.84629 C 179.51729,845.60511 241.95748,820.87808 241.95748,820.87808 L 55.185375,553.84629 z"
       id="path3672"
       inkscape:export-filename="/Users/Sebram/TEST.png"
       inkscape:export-xdpi="29.719835"
       inkscape:export-ydpi="29.719835" />
    <path
       style="fill:#b3b3b3;fill-opacity:1;stroke:#dcdcdc;stroke-width:2.80200005000000019;stroke-linecap:round;stroke-linejoin:round;stroke-miterlimit:4;stroke-opacity:1;stroke-dasharray:none;filter:url(#filter3620)"
       id="path2838"
       d="m 361.85913,707.67319 c -0.7442,4.62844 -0.86619,9.32578 -0.9781,14.00262 -0.0393,1.64162 0.0632,3.29137 -0.10113,4.92522 -0.18818,1.87168 -0.63553,3.70817 -0.9533,5.56226 -0.57276,1.80442 -0.9752,3.67205 -1.71827,5.41326 -3.62591,8.49651 -10.88275,14.64331 -18.69554,19.20927 -2.28783,1.33705 -4.71619,2.41765 -7.07429,3.62647 -10.05222,3.76347 -20.6863,8.34641 -31.6648,8.18044 -51.1792,-0.7737 -35.50733,5.53528 -57.99992,-5.38669 -2.37001,-2.03154 -4.9485,-3.84253 -7.11004,-6.09461 -11.005,-11.466 -16.44819,-27.23923 -19.21864,-42.58438 -0.83765,-4.6396 -1.18252,-9.35478 -1.77378,-14.03217 0.12644,-4.93513 -0.12374,-9.89434 0.37931,-14.80539 1.65089,-16.1169 6.86448,-31.98813 14.64534,-46.16569 6.77919,-12.35242 10.95138,-16.67634 19.6166,-27.59421 4.31157,-3.82239 8.34637,-7.98186 12.93473,-11.46715 14.24517,-10.82058 31.13378,-18.25683 48.7462,-21.44514 22.08707,-3.99835 54.19756,-0.42257 72.51788,0.24883 5.59995,1.94741 11.39738,3.39985 16.79983,5.84223 15.44475,6.98239 29.33272,18.19627 38.74368,32.36894 7.78351,11.72176 9.00506,18.1974 13.4942,31.42865 7.54742,30.57997 5.17882,62.18661 3.43679,93.29305 -0.18016,9.5349 -3.0251,25.07271 1.87712,33.87364 0.6761,1.2138 1.69434,2.20247 2.5415,3.3037 1.11196,0.79787 2.11374,1.7776 3.33587,2.39359 1.53225,0.77231 3.15471,1.45241 4.84778,1.73125 2.55999,0.4216 10.3697,0.39406 7.77564,0.34771 -9.98278,-0.17836 -20.12582,1.071 -29.94387,-0.74379 -4.36939,-0.80765 8.8111,-1.27538 13.11852,-2.36624 4.6715,-1.18307 9.17209,-2.96021 13.75814,-4.44031 19.60446,-7.5515 36.75239,-19.69545 50.36862,-35.70674 8.41129,-9.89081 10.60559,-14.47037 17.31162,-25.48737 8.05448,-16.25481 14.75906,-33.67408 16.67645,-51.86658 1.06101,-10.06692 0.23059,-12.49514 -0.92948,-22.37321 -1.22932,-3.36174 -2.01106,-6.92286 -3.68795,-10.08523 -8.12863,-15.3294 -25.29304,-23.06235 -41.34259,-26.96483 -5.35802,-1.30281 -10.86862,-1.86969 -16.30292,-2.80454 -5.86781,-0.28272 -21.67674,-5.08124 -17.60341,-0.84816 4.23791,4.40412 18.38192,-4.56908 18.27094,1.54188 -0.11362,6.25601 -12.34543,2.17121 -18.36911,3.86409 -12.27833,3.45067 -22.32941,8.00186 -33.36743,14.30094 -4.92221,2.80896 -9.54279,6.11629 -14.31418,9.17443 -23.92902,16.74705 -42.73855,39.15234 -60.69934,61.88418 -5.59454,6.89249 -10.77479,14.12671 -16.38599,21.00549 -3.51655,4.31094 -7.32245,8.40649 -11.0223,12.55985 -3.30074,3.66688 -1.76452,1.9117 -4.62379,5.25228 0,0 -45.20232,-3.37784 -45.20232,-3.37784 l 0,0 c 3.40987,-3.44814 1.59221,-1.67503 5.47201,-5.29973 11.01501,-10.45947 21.60224,-21.35487 31.4394,-32.94139 19.624,-22.48506 39.03863,-45.53204 63.64067,-62.83983 4.94198,-3.15582 9.75175,-6.52894 14.82594,-9.46746 11.47411,-6.6448 21.09976,-11.27954 33.81986,-15.19579 29.54499,-9.09628 61.01509,-7.15505 91.49425,-4.84975 5.71112,1.07846 11.50659,1.77953 17.13335,3.23538 13.82908,3.57811 28.07688,9.55793 37.69586,20.58452 6.72821,7.71279 6.90298,11.41584 10.00035,20.84594 0.35652,3.86342 1.04607,7.7105 1.06956,11.59026 0.0522,8.62344 -1.51231,16.30591 -3.60773,24.63822 -3.54575,14.09941 -8.65979,27.73738 -15.59305,40.53229 -6.87453,11.4399 -8.99266,15.93708 -17.56925,26.28266 -13.46233,16.23901 -30.24455,29.28604 -49.63987,37.64003 -6.02634,2.31118 -18.4908,7.69424 -25.37566,8.10657 -17.43016,1.0439 -34.91782,0.99344 -52.3781,0.79697 -5.74106,-0.0646 -10.67118,-1.15125 -15.25608,-4.51126 -1.32736,-0.97274 -2.24171,-2.40982 -3.36257,-3.61473 -0.80014,-1.49015 -1.79378,-2.89161 -2.40042,-4.47045 -4.17586,-10.8681 0.49697,-24.6889 1.74997,-35.66732 1.41122,-8.84674 2.65951,-15.95633 3.57947,-24.97389 2.27488,-22.29863 2.07016,-44.82439 -3.86125,-66.59693 -4.83789,-12.97624 -6.00723,-18.65708 -13.93879,-30.06767 -9.33781,-13.43365 -22.69293,-24.08203 -37.80711,-30.33361 -5.36658,-2.21975 -11.10875,-3.39199 -16.66312,-5.08798 6.42669,-0.63824 13.80232,1.50638 19.28006,-1.91473 5.1034,-3.1873 -12.06492,0.23543 -18.01572,1.12509 -17.2083,2.57269 -33.88837,9.55533 -47.94966,19.77013 -4.49617,3.26622 -8.44645,7.22443 -12.66967,10.83665 -9.07957,10.89442 -12.6408,14.09953 -19.51359,26.65012 -9.90498,18.08778 -14.58538,38.20036 -13.56978,58.77212 0.70703,4.51551 1.12126,9.08669 2.12108,13.54651 3.28036,14.63252 9.6845,29.83015 21.35943,39.76466 2.25942,1.9226 4.91633,3.32192 7.3745,4.98289 18.75649,6.66915 9.73641,2.39299 -26.44859,3.87272 -2.632,0.10763 5.28187,0.2434 7.90257,-0.0229 3.52297,-0.35799 12.56476,-2.68308 15.89302,-3.72687 2.54584,-0.79842 5.01969,-1.81046 7.52953,-2.7157 9.4752,-4.42816 19.49527,-9.49928 24.20733,-19.49208 0.70992,-1.50551 1.11056,-3.13829 1.66584,-4.70744 0.25184,-1.61413 0.64631,-3.21238 0.75551,-4.84238 0.10977,-1.63841 -0.0618,-3.2836 -0.10113,-4.92522 -0.1119,-4.67684 -0.23389,-9.37418 -0.97809,-14.00262 0,0 46.5754,0 46.5754,0 z"
       inkscape:export-filename="/Users/Sebram/TEST.png"
       inkscape:export-xdpi="29.719835"
       inkscape:export-ydpi="29.719835" />
    <path
       id="path3674"
       d="M 132.17345,225.17703 C 37.417419,527.83678 100.96941,549.54734 100.96941,549.54734 l 31.20404,-324.37031 z"
       style="opacity:0.84000005000000000;fill:#aa0000;stroke:#000000;stroke-width:1px;stroke-linecap:butt;stroke-linejoin:miter;stroke-opacity:1"
       inkscape:export-filename="/Users/Sebram/TEST.png"
       inkscape:export-xdpi="29.719835"
       inkscape:export-ydpi="29.719835" />
    <path
       sodipodi:type="spiral"
       style="fill:none;stroke:#000000;stroke-width:1px;stroke-linecap:butt;stroke-linejoin:miter;stroke-opacity:1"
       id="path3628"
       sodipodi:cx="335.71429"
       sodipodi:cy="718.07648"
       sodipodi:expansion="0.94"
       sodipodi:revolution="1.9"
       sodipodi:radius="148.63322"
       sodipodi:argument="-13.196216"
       sodipodi:t0="0"
       d="m 335.71429,718.07648 c 10.98641,-8.00774 16.22069,10.29146 13.01011,17.84951 -7.93306,18.67526 -33.3596,17.67879 -47.2549,7.11074 -24.06424,-18.30203 -21.40275,-54.33711 -2.29573,-75.09286 27.42041,-29.78651 75.06565,-25.31465 102.24013,2.24565 35.61021,36.11581 29.28324,95.5256 -6.637,128.91925 -44.58931,41.45296 -115.7528,33.26577 -155.24343,-10.92826 -47.28586,-52.91768 -37.24536,-135.78118 15.14576,-181.28194 34.47595,-29.94175 82.50485,-40.79964 126.7494,-30.25064"
       inkscape:export-filename="/Users/Sebram/TEST.png"
       inkscape:export-xdpi="29.719835"
       inkscape:export-ydpi="29.719835" />
    <path
       style="opacity:0.84000005;fill:#aa0000;stroke:#000000;stroke-width:1px;stroke-linecap:butt;stroke-linejoin:miter;stroke-opacity:1"
       d="m 205.99049,237.18982 c -160.411972,273.58661 -103.37274,309.037 -103.37274,309.037 l 103.37274,-309.037 z"
       id="path3676"
       inkscape:export-filename="/Users/Sebram/TEST.png"
       inkscape:export-xdpi="29.719835"
       inkscape:export-ydpi="29.719835" />
    <path
       id="path3678"
       d="M 267.9797,275.31716 C 58.0995,513.08161 107.28564,558.80827 107.28564,558.80827 L 267.9797,275.31716 z"
       style="opacity:0.84000005000000000;fill:#d40000;stroke:#000000;stroke-width:1px;stroke-linecap:butt;stroke-linejoin:miter;stroke-opacity:1"
       inkscape:export-filename="/Users/Sebram/TEST.png"
       inkscape:export-xdpi="29.719835"
       inkscape:export-ydpi="29.719835" />
    <path
       style="opacity:0.84000005000000000;fill:#d40000;stroke:#000000;stroke-width:1px;stroke-linecap:butt;stroke-linejoin:miter;stroke-opacity:1"
       d="M 343.00217,338.26194 C 70.933217,501.23469 103.94749,559.7177 103.94749,559.7177 L 343.00217,338.26194 z"
       id="path3680"
       inkscape:export-filename="/Users/Sebram/TEST.png"
       inkscape:export-xdpi="29.719835"
       inkscape:export-ydpi="29.719835" />
    <path
       id="path3682"
       d="M 390.13192,396.33129 C 88.37486,493.92387 107.38696,558.33462 107.38696,558.33462 L 390.13192,396.33129 z"
       style="opacity:0.84000005000000000;fill:#d40000;stroke:#000000;stroke-width:1px;stroke-linecap:butt;stroke-linejoin:miter;stroke-opacity:1"
       inkscape:export-filename="/Users/Sebram/TEST.png"
       inkscape:export-xdpi="29.719835"
       inkscape:export-ydpi="29.719835" />
    <path
       style="opacity:0.84000005;fill:#37c871;stroke:#000000;stroke-width:1px;stroke-linecap:butt;stroke-linejoin:miter;stroke-opacity:1"
       d="M 259.00268,340.64408 C -57.29481,363.82892 -54.11323,430.91156 -54.11323,430.91156 L 259.00268,340.64408 z"
       id="path3684"
       inkscape:export-filename="/Users/Sebram/TEST.png"
       inkscape:export-xdpi="29.719835"
       inkscape:export-ydpi="29.719835" />
    <path
       id="path3686"
       d="M 428.61151,558.10221 C 120.16364,484.33539 102.86463,549.22722 102.86463,549.22722 l 325.74688,8.87499 z"
       style="opacity:0.84000005;fill:#37c871;stroke:#000000;stroke-width:1px;stroke-linecap:butt;stroke-linejoin:miter;stroke-opacity:1"
       inkscape:export-filename="/Users/Sebram/TEST.png"
       inkscape:export-xdpi="29.719835"
       inkscape:export-ydpi="29.719835" />
    <path
       style="opacity:0.84000005;fill:#37c871;stroke:#000000;stroke-width:1px;stroke-linecap:butt;stroke-linejoin:miter;stroke-opacity:1"
       d="M 421.69172,632.56951 C 137.74373,491.30673 106.29042,550.64385 106.29042,550.64385 l 315.4013,81.92566 z"
       id="path3688"
       inkscape:export-filename="/Users/Sebram/TEST.png"
       inkscape:export-xdpi="29.719835"
       inkscape:export-ydpi="29.719835" />
    <path
       style="opacity:0.84000005;fill:#37c871;fill-opacity:1;stroke:#dcdcdc;stroke-width:2.80200005;stroke-linecap:round;stroke-linejoin:round;stroke-miterlimit:4;stroke-opacity:1;stroke-dasharray:none"
       id="path3694"
       d="M 9.8766039,370.01435 C 27.454093,354.15079 45.815437,339.08796 65.533994,325.93969 c 4.987267,-3.32549 10.03886,-6.57231 15.276566,-9.48747 3.717259,-2.06893 7.696626,-3.6271 11.544939,-5.44064 2.664997,0.43758 6.191222,-0.69726 7.994991,1.31274 5.28894,5.89364 3.64488,26.36725 3.39144,30.78843 -0.91866,16.02583 -3.966054,36.20595 -5.909023,51.99412 -1.027048,8.34559 -1.955073,16.70307 -2.93261,25.05461 -0.0173,3.71063 -3.308586,27.11312 5.908053,31.14348 10.15474,4.44058 35.87936,-16.20601 37.65717,-17.54869 21.49835,-16.23657 45.87635,-39.71553 65.40344,-57.73023 19.89221,-18.82285 39.38219,-38.06372 59.16011,-57.0052 6.0507,-5.7948 12.01563,-11.6857 18.26367,-17.26716 2.90952,-2.59911 5.40442,-6.29205 9.18547,-7.25353 6.29853,-1.60164 -0.48372,13.15461 -2.48418,19.33805 -8.92375,25.41054 -18.63724,50.67221 -25.13987,76.85977 -1.94784,7.84439 -7.10977,28.06455 -3.74314,37.8046 1.13531,3.28457 4.84911,4.97951 7.27367,7.46927 4.46021,-0.22004 9.03576,0.37138 13.38063,-0.66014 13.09647,-3.10922 33.1021,-13.3125 44.36544,-18.92289 15.45764,-7.69962 30.45609,-16.30681 45.98388,-23.86397 5.20444,-2.53293 10.59853,-4.65608 15.8978,-6.98411 3.0961,-0.35947 6.34611,-2.10727 9.2883,-1.0784 6.81098,2.38176 2.38214,12.93852 1.34083,15.77337 -3.39804,9.25086 -8.62145,16.64675 -13.33754,25.22533 -2.09181,3.80501 -3.99003,7.7133 -5.98504,11.56996 -0.15924,2.97629 -1.78254,6.24913 -0.47771,8.92889 3.52103,7.23121 18.8787,7.74999 23.54189,7.89691 14.55109,0.45843 31.83105,-2.38779 45.83066,-5.36778 7.78929,-1.65805 15.4265,-3.96381 23.13975,-5.94572 12.13023,-4.11489 20.87961,-6.41803 31.90703,-12.25372 2.42809,-1.28493 4.77967,-2.79258 6.80577,-4.64774 0.76447,-0.69997 1.64493,-1.81807 1.33658,-2.80766 -0.25847,-0.82952 -1.64697,-0.5542 -2.47046,-0.8313 -0.0897,-0.0806 1.05066,-1.34859 1.14032,-1.26796 l 0,0 c 0.98859,0.89146 2.66203,1.37834 2.96578,2.67439 0.87615,3.73844 -7.58584,8.66123 -8.2314,9.04286 -10.87155,6.42684 -19.72389,8.82119 -31.89173,13.20438 -7.77962,2.04629 -15.46951,4.47056 -23.33884,6.13887 -15.47646,3.28103 -32.36844,5.81244 -48.29591,4.68397 -6.99489,-0.49559 -20.75875,-1.97874 -24.66972,-10.60288 -1.35405,-2.98583 0.23819,-6.55269 0.35729,-9.82903 1.96923,-3.91398 3.80234,-7.89947 5.9077,-11.74193 5.39872,-9.8531 9.17245,-14.33989 13.54728,-24.57329 1.22786,-2.87217 2.43345,-5.83606 2.82425,-8.93514 0.18525,-1.46908 0.26112,-3.86187 -1.15668,-4.2889 -2.72156,-0.81971 -5.60668,0.93833 -8.41002,1.4075 -5.13983,2.4575 -10.34959,4.7738 -15.41949,7.37252 -28.82098,14.77297 -14.85943,8.97041 -45.95201,24.14828 -10.34963,5.05218 -33.39382,16.27489 -45.86565,18.47251 -5.24694,0.92455 -10.65,-0.34368 -15.97501,-0.51552 -2.71362,-2.91694 -6.73903,-5.02159 -8.14085,-8.75082 -3.87276,-10.30255 0.73893,-30.04307 2.82877,-38.83492 6.26284,-26.34739 16.21095,-51.67688 26.20593,-76.76896 1.92155,-4.66174 3.85552,-9.31837 5.76465,-13.98521 0.40232,-0.98345 2.04057,-3.57392 1.16956,-2.96535 -3.10547,2.16974 -5.52249,5.18943 -8.19532,7.87414 -5.88046,5.90658 -11.60384,11.96783 -17.46168,17.89685 -29.76586,30.1276 -25.76758,25.8722 -58.62079,57.64484 -21.85032,19.77928 -42.86806,40.11349 -67.00974,57.18047 -7.14781,5.05315 -29.126,21.99982 -42.544289,15.6711 -9.902149,-4.67033 -7.050767,-27.11938 -7.137633,-32.53491 0.924017,-8.37595 1.739118,-16.76463 2.77205,-25.12784 1.850317,-14.98122 5.268618,-36.40291 6.586872,-51.64316 0.18592,-2.14929 2.45291,-23.60312 -1.126118,-28.8613 -1.094632,-1.6082 -3.813418,-0.77195 -5.720126,-1.15793 -3.689904,1.87974 -7.49438,3.54976 -11.06971,5.63921 -25.546778,14.92973 -48.335387,34.23378 -71.483135,52.51074 -0.08246,0.0997 -1.4929533,-1.06637 -1.4104971,-1.1661 z"
       inkscape:export-filename="/Users/Sebram/TEST.png"
       inkscape:export-xdpi="29.719835"
       inkscape:export-ydpi="29.719835" />
    <path
       style="opacity:0.84000005;fill:#37c871;fill-opacity:1;stroke:#dcdcdc;stroke-width:2.80200005;stroke-linecap:round;stroke-linejoin:round;stroke-miterlimit:4;stroke-opacity:1;stroke-dasharray:none"
       id="path3698"
       d="M 10.441299,654.39156 C 7.924932,648.10665 6.8870112,645.82954 4.8064722,637.71762 0.15044012,619.56398 -3.7151227,597.95423 -6.590292,579.87048 c -5.728638,-36.031 -6.214374,-44.38517 -10.222689,-80.65631 -1.605334,-20.69625 -3.552983,-39.72735 -3.653064,-60.34488 -0.02312,-4.76331 -0.115074,-9.58651 0.751992,-14.2703 0.293548,-1.58572 1.029934,-4.14147 2.640221,-4.05404 5.382757,0.29226 12.2953102,15.13699 12.9453883,16.22328 13.0305041,23.57585 25.7811157,47.30606 38.5282117,71.03592 10.08904,18.78165 22.863393,43.13437 33.64197,61.61963 4.97297,8.52865 10.339619,16.82158 15.509429,25.23237 9.21822,11.56597 22.874303,35.85953 42.463253,28.27226 5.71108,-2.21203 10.38786,-6.68765 14.65881,-11.07724 14.22829,-14.62352 22.46389,-30.92896 32.91223,-48.31839 12.90476,-24.89588 25.13143,-50.18149 35.47552,-76.26115 1.68423,-4.2463 3.23545,-8.54653 4.68834,-12.87744 1.71709,-5.11846 0.76332,-7.08274 1.90292,-3.48099 -0.39617,2.48337 -1.01343,4.94145 -1.18851,7.45012 -0.98783,14.15475 -0.23465,25.25443 1.42026,39.8299 2.71133,23.87985 6.74086,46.17538 12.09213,69.67216 2.81284,12.35081 6.26124,24.54822 9.39186,36.82233 7.17234,21.08333 11.2244,36.7668 22.04371,55.87868 2.43262,4.29712 11.09074,19.04133 19.69533,18.89514 7.25405,-0.12324 11.23144,-15.87747 12.23917,-18.26989 5.16023,-19.3757 7.45177,-39.31695 8.56075,-59.28961 0.27722,-4.99272 0.37337,-9.99479 0.44133,-14.99475 0.15693,-11.54624 -0.83416,-5.92801 0.43789,-11.94202 1.38362,2.12523 3.18432,4.03115 4.15084,6.37567 2.20844,5.35707 12.37906,41.016 12.58016,41.71019 5.62264,19.40917 13.59923,47.75585 19.70688,66.77685 3.50639,10.91992 7.42234,21.70408 11.13351,32.55612 6.72233,14.95863 12.45436,32.54814 24.91493,44.35331 4.18165,3.9617 9.33929,7.43873 14.97698,8.621 5.51667,1.1569 11.54125,0.0809 16.79629,-1.95786 18.74934,-7.27419 28.08238,-20.60226 41.77008,-34.7324 21.01403,-26.15641 38.14886,-55.17323 51.30609,-86.02016 3.48849,-8.17873 9.26938,-22.8292 9.73733,-32.97991 0.0708,-1.53561 -1.00966,-2.90397 -1.51449,-4.35595 -0.0408,-0.1258 1.73825,-0.70239 1.77902,-0.57659 l 0,0 c 0.74931,1.75175 2.18278,3.3511 2.24793,5.25527 0.35696,10.43424 -5.1162,25.61652 -8.51017,34.09009 -12.64098,31.56014 -30.16892,60.86 -51.77018,87.10132 -13.70017,13.60479 -25.0026,28.5775 -44.07931,35.05226 -23.53979,7.98954 -38.53971,-7.3815 -49.44665,-26.02893 -4.94321,-8.45132 -8.27922,-17.74528 -12.41884,-26.61792 -3.77038,-10.89018 -7.80298,-21.69307 -11.31114,-32.67052 -6.51886,-20.39832 -13.42879,-46.21349 -18.93092,-67.03897 -2.26368,-8.56801 -4.40388,-17.16821 -6.63423,-25.74496 -1.40683,-5.40991 -3.12592,-10.74488 -4.27726,-16.21486 -0.46952,-2.23067 -0.38009,-4.54323 -0.57013,-6.81484 0.11069,5.54257 -0.002,1.59068 0.64312,11.84306 0.53441,25.34423 -2.18621,50.77923 -9.17353,75.18703 -3.05983,6.44451 -5.70083,19.16171 -16.18974,19.22969 -9.18695,0.0596 -18.67395,-14.33351 -21.74876,-19.43417 -11.58186,-19.21266 -15.63511,-34.81408 -23.17302,-56.26552 -3.14454,-12.34836 -6.68209,-24.60324 -9.4336,-37.04506 -5.20566,-23.53902 -8.89769,-46.28097 -10.98622,-70.24973 -1.17201,-13.45036 -1.73113,-26.94559 0.0291,-40.36449 0.35844,-2.73261 1.34232,-5.3461 2.01349,-8.01915 0.86161,-0.15303 2.28582,-1.28152 2.58483,-0.45909 0.63934,1.75847 -0.26809,3.75219 -0.72814,5.56584 -1.13364,4.46911 -2.49891,8.8833 -4.03937,13.22899 -9.43583,26.61865 -21.79637,52.08988 -34.88253,77.07248 -10.0707,16.25424 -20.18044,35.34589 -34.51398,48.70136 -5.10007,4.75206 -10.89325,9.23325 -17.50511,11.44146 C 104.63746,632.44346 90.253836,609.03445 80.007319,596.44961 74.689095,588.04727 69.126425,579.79475 64.052648,571.24258 52.459205,551.7011 41.045164,529.58246 30.51641,509.48864 18.043651,485.68473 5.7564663,461.78589 -6.466216,437.85288 c -2.0899902,-3.87787 -4.167686,-7.76239 -6.269971,-11.6336 -0.892642,-1.64374 -0.956877,-4.27175 -2.714704,-4.91107 -1.161401,-0.42241 -1.522069,2.10189 -1.622444,3.33364 -0.380872,4.67382 -0.02902,9.38297 0.204503,14.06647 0.972357,19.50137 3.181472,40.83122 4.94155,60.05324 4.118807,37.3342 4.5058959,43.32997 9.7031762,80.50913 2.41988568,17.31084 5.7718877,40.10967 9.4887892,57.85961 1.660009,7.92732 2.6106505,10.57683 4.6598756,16.95165 0.02189,0.10488 -1.461367,0.41449 -1.48326,0.30961 z"
       inkscape:export-filename="/Users/Sebram/TEST.png"
       inkscape:export-xdpi="29.719835"
       inkscape:export-ydpi="29.719835" />
    <path
       style="opacity:0.84000005;fill:#37c871;fill-opacity:1;stroke:#dcdcdc;stroke-width:2.80200005;stroke-linecap:round;stroke-linejoin:round;stroke-miterlimit:4;stroke-opacity:1;stroke-dasharray:none"
       id="path3702"
       d="m 636.57345,680.13647 c -15.37761,4.99624 -31.29178,2.22124 -47.0503,1.74983 -9.57333,-0.28638 -19.30368,1.39488 -28.73133,-0.29331 -21.35177,-3.82343 -40.74678,-16.73785 -59.16171,-26.88771 -10.60304,-7.88437 -21.20609,-15.76875 -31.80914,-23.65313 -8.94088,-10.40082 -16.40136,-22.28545 -26.82265,-31.20248 -31.35936,-26.83284 -47.2691,-15.8793 -59.03095,-60.01767 0.80796,-50.28762 4.89941,-27.61916 -8.71429,-68.55256 -3.35261,-7.45115 -11.07412,-14.24626 -10.05781,-22.35346 0.13945,-1.11236 23.80066,-35.00505 25.57783,-41.13482 1.25713,-4.33604 -1.01537,-9.001 -0.89719,-13.51406 0.62742,-23.95968 3.4988,1.86709 -0.11299,-21.86772 -4.19383,-11.37276 -4.57767,-23.48872 -4.91159,-35.45924 -0.10339,-3.70658 0.48261,-7.4594 -0.0849,-11.12374 -0.56026,-3.61761 -2.28624,-6.95829 -3.2619,-10.48662 -0.99521,-3.59903 -1.7652,-7.25657 -2.6478,-10.88486 -1.03919,-3.90898 54.24225,-18.60529 55.28144,-14.6963 l 0,0 c 11.19028,28.89733 -1.45559,-5.23344 8.28098,26.21177 1.39732,4.51278 3.60279,8.75545 4.90525,13.29651 3.02751,10.55548 5.00751,21.63013 3.98602,32.68094 -0.54454,5.89105 -2.43647,11.57876 -3.6547,17.36814 -1.72389,4.62411 -3.50599,9.22693 -5.17166,13.87232 -1.14675,3.19818 -1.6921,6.64397 -3.26462,9.6557 -1.21651,2.32988 -5.80743,3.62759 -4.97224,6.11972 1.12259,3.34972 5.58925,4.56456 8.93402,5.70184 27.30107,9.2829 19.22803,-5.04539 24.85418,19.81927 31.49734,44.76476 -10.9552,-8.77439 46.35242,34.18144 34.80052,26.08528 8.16887,22.5558 28.59306,58.48927 5.43753,9.56657 16.11715,15.01533 23.59388,23.08903 6.86531,7.41346 12.91704,15.54082 19.37557,23.31124 3.85075,4.43332 30.58247,34.63849 33.99559,40.70934 3.93947,7.00705 5.16277,15.23084 8.06866,22.72578 2.1634,5.57988 4.74535,10.98832 7.13077,16.47695 1.66669,3.83489 3.69981,7.52788 5.02553,11.49358 0.92614,2.7704 1.12749,5.73239 1.69123,8.59859 0.46503,0.37396 -4.82366,6.95038 -5.28868,6.57642 z"
       inkscape:export-filename="/Users/Sebram/TEST.png"
       inkscape:export-xdpi="29.719835"
       inkscape:export-ydpi="29.719835" />
    <path
       style="opacity:0.84000005000000000;fill:#00d4aa;fill-opacity:1;stroke:#dcdcdc;stroke-width:2.80200005000000019;stroke-linecap:round;stroke-linejoin:round;stroke-miterlimit:4;stroke-opacity:1;stroke-dasharray:none"
       id="path3704"
       d="m 361.32753,664.72871 c 9.43528,-2.24687 3.34296,-0.60759 14.35142,-4.20953 4.36411,-1.42793 8.52203,-4.00877 13.10824,-4.2349 4.38289,-0.21611 9.05993,5.20424 12.82848,2.95602 38.86854,-23.18794 32.52498,-22.53205 16.17541,-28.00071 34.33241,-43.75239 -9.39617,6.39491 35.64322,-27.65197 6.30537,-4.76646 9.31273,-12.96641 15.33248,-18.08885 8.07006,-6.86714 24.72394,-14.17904 35.44134,-16.31981 3.95139,-0.78929 8.05772,-0.13756 12.08659,-0.20634 10.63165,9.4749 5.52731,3.79765 14.63198,17.62029 -2.78985,-1.59844 19.81555,-41.05296 22.60541,-39.45451 l 0,0 c 25.3178,19.98155 14.93203,7.97666 31.08933,36.07335 1.86249,8.61096 5.30882,17.0272 5.58749,25.83287 0.6958,21.98727 -5.92921,46.03667 -20.74412,62.92298 -9.0612,10.32812 -21.95736,16.52199 -32.94089,24.77653 -11.60189,8.71927 -21.33719,20.76266 -34.81535,26.14489 -13.52333,5.40027 -28.9255,3.38945 -43.38826,5.08417 -108.08431,11.32717 -29.38892,20.95391 -78.65112,-20.05399 -4.56676,-3.80156 -12.31485,-0.46467 -17.50787,-3.35253 -3.86081,-2.147 -5.33052,-7.05178 -7.79468,-10.71831 -5.49219,-8.17209 -4.54129,-5.50089 -5.15759,-12.87013 -1.14901,-0.85691 10.96947,-17.10643 12.11849,-16.24952 z"
       inkscape:export-filename="/Users/Sebram/TEST.png"
       inkscape:export-xdpi="29.719835"
       inkscape:export-ydpi="29.719835" />
    <path
       style="opacity:0.74000005;fill:#ffff00;fill-opacity:1;stroke:#dcdcdc;stroke-width:2.80200005;stroke-linecap:round;stroke-linejoin:round;stroke-miterlimit:4;stroke-opacity:1;stroke-dasharray:none"
       id="path3740"
       d="m 622.00176,239.44648 c -0.25528,-4.63543 -1.36861,-9.30313 -0.76583,-13.90629 2.39775,-18.31035 9.46774,-33.39762 18.45856,-49.49943 15.04682,-26.9476 22.77455,-38.68373 48.13499,-57.51728 10.7274,-7.96654 23.02483,-13.5657 34.53724,-20.348555 32.8362,-8.896503 36.91878,-13.116433 70.28775,-10.719815 15.23904,1.094495 31.00758,1.292976 45.37195,6.497889 8.79958,3.188518 15.20753,11.075081 21.70827,17.808551 19.03396,19.7154 22.54975,31.12863 35.30309,55.67267 5.90422,13.71308 12.75714,27.05552 17.71265,41.13925 23.06625,65.55506 31.97806,130.83582 28.51089,200.36762 -1.2772,25.61339 -3.68991,51.31155 -8.9308,76.41554 -4.8306,23.13865 -14.10168,45.12284 -21.15253,67.68426 -25.72428,46.63967 -24.45032,53.08678 -59.2364,87.88215 -5.96071,5.9623 -13.16475,10.55212 -20.0476,15.42096 -0.29774,0.21062 -1.21875,-0.37112 -0.92401,-0.58592 6.15282,-4.48413 12.90208,-8.11141 19.03955,-12.61652 19.70343,-14.46299 38.97022,-29.51159 58.45533,-44.26739 12.53251,3.42266 -35.87114,180.65915 -48.40365,177.23649 l 0,0 c -17.21501,-15.42317 -33.72219,-31.6749 -51.64502,-46.26952 -42.88526,-34.92161 -33.33015,-15.59466 -71.17996,-58.21866 -11.3684,-12.80236 -22.46167,-26.12694 -30.9297,-41.00758 -27.23882,-47.86605 -23.65876,-61.5596 -31.60242,-116.57889 2.17332,-24.23705 1.7838,-48.8422 6.51996,-72.71115 4.95063,-24.94981 13.35457,-49.17215 22.38309,-72.95213 16.32191,-42.98985 38.02181,-81.61145 62.389,-120.33173 8.92927,-14.1889 19.0945,-27.56343 28.39827,-41.50963 6.55377,-9.824 12.77981,-19.86272 19.16971,-29.79408 3.20118,-5.81808 6.68105,-11.49129 9.60353,-17.45422 1.21249,-2.47392 3.76197,-5.21849 2.76788,-7.78796 -0.64902,-1.67755 -5.8874,0.1141 -5.10935,1.73584 1.4195,2.95874 9.15209,1.93442 8.40306,5.12943 -3.10327,13.23704 -28.74809,13.73151 -30.40078,27.19261 -14.28517,9.55253 -38.20479,26.0125 -52.99656,33.86303 -10.22958,5.42921 -21.0806,9.59648 -31.60661,14.42595 -19.44846,8.92322 -38.72086,19.38327 -60.36705,21.75542 -1.14205,2.25259 -32.99854,-13.89831 -31.8565,-16.15091 z"
       inkscape:export-filename="/Users/Sebram/TEST.png"
       inkscape:export-xdpi="29.719835"
       inkscape:export-ydpi="29.719835" />
    <path
       style="opacity:0.74000005;fill:#ffff00;fill-opacity:1;stroke:#dcdcdc;stroke-width:2.80200005;stroke-linecap:round;stroke-linejoin:round;stroke-miterlimit:4;stroke-opacity:1;stroke-dasharray:none;filter:url(#filter3752)"
       id="path3742"
       d="m 151.32325,175.34351 c -3.99572,0.22693 -7.98844,0.51505 -11.98717,0.68081 -7.46221,0.30932 -14.929,0.49622 -22.3935,0.74433 -11.58834,0.58377 -23.17342,1.23632 -34.76502,1.75131 -39.15795,1.7397 -71.52118,3.95947 -111.12632,-0.10013 -21.01691,-2.15428 -41.67063,-6.99749 -62.50594,-10.49623 -48.82411,-14.024 -61.43669,-14.60844 -104.75408,-37.87328 -11.58128,-6.22006 -26.70255,-10.07968 -32.97532,-21.6325 -3.18821,-5.87186 12.5923,-8.66853 12.89888,-15.34306 0.22132,-4.81828 -6.99488,-8.08063 -11.81008,-8.3609 -2.55072,-0.14847 -0.12014,5.10865 -0.18021,7.66298 12.10793,29.12772 20.36952,60.15143 21.63679,91.84134 0.74259,18.56976 -2.72265,49.64973 -6.8214,68.14293 -1.72177,7.76848 -4.76886,15.18265 -7.1533,22.77398 -0.98552,3.75038 -3.95589,7.50441 -2.95656,11.25114 0.50671,1.89979 4.0119,0.33084 5.89378,-0.2388 5.32163,-1.61084 10.21803,-4.41402 15.47353,-6.22904 21.15117,-7.30472 30.62255,-10.54336 53.83606,-10.04856 10.60206,0.22598 21.06262,2.48695 31.59393,3.73043 27.48166,9.84043 34.37054,10.03633 58.17825,27.6692 18.91511,14.00923 28.70888,25.79077 41.15835,45.42228 5.30857,8.37106 10.3318,16.99168 14.2825,26.08275 4.0351,9.28527 6.38517,19.21517 9.57776,28.82275 2.42365,10.36509 5.38922,20.61824 7.27095,31.09527 6.07724,33.83651 8.5003,70.17731 -2.07106,103.48776 -8.70554,27.43123 -16.77592,34.48907 -33.3911,56.68842 -7.58423,5.74097 -14.46791,12.54941 -22.7527,17.22291 -22.16162,12.50153 -49.24625,14.86393 -72.70651,4.21318 -12.05886,-5.47462 -16.66486,-16.69557 -22.94269,-27.06898 -1.53737,-5.63636 -3.75588,-11.12991 -4.61211,-16.90909 -2.1804,-14.71682 -0.16507,-31.12623 9.05171,-43.22167 5.37577,-7.05479 8.79426,-7.91018 16.08142,-11.68757 2.22234,-0.30673 4.44467,-0.61347 6.66701,-0.92021 0.52708,-0.47919 7.30388,6.97483 6.7768,7.45403 l 0,0 c 0.53792,0.79488 1.07584,1.58977 1.61376,2.38465 2.75693,6.56851 4.23132,12.9 3.94467,20.14178 -0.36022,9.10048 -3.18713,18.15546 -1.86684,27.35263 0.52596,2.15381 0.6828,4.43305 1.57788,6.46145 2.2556,5.11155 7.2187,4.69649 -2.79435,5.23261 -0.66759,0.0358 1.624,-0.17945 1.83276,-0.81457 2.25513,-6.86085 -1.23924,-14.97853 2.21967,-21.55192 0.57769,-3.41502 7.22368,-42.75535 7.42933,-43.72488 1.93131,-9.10495 4.24571,-18.13002 6.74613,-27.0954 2.47614,-8.87836 5.74183,-17.52516 8.17765,-26.41467 6.42318,-23.4413 5.3767,-21.56791 7.71761,-43.97391 -2.66433,-12.45807 -2.74427,-20.06098 -11.01175,-30.4223 -3.34911,-4.19731 -7.76025,-7.49822 -12.19615,-10.52423 -17.40752,-11.87477 -35.77844,-13.56615 -56.24839,-15.05344 -14.12366,-1.40822 -39.87641,-3.49839 -53.3841,-6.89242 -9.67154,-2.43014 -19.1008,-5.86088 -28.28227,-9.75254 -21.30041,-9.02839 -36.39839,-18.07505 -53.67919,-33.70598 -8.03256,-7.26565 -14.75471,-15.86019 -22.13207,-23.79029 -5.86726,-9.47226 -12.90023,-18.3151 -17.60179,-28.41676 -5.05339,-10.8576 -8.59349,-22.42241 -11.47067,-34.04764 -3.26914,-13.20896 -6.22744,-26.64265 -6.91333,-40.23285 -1.42911,-28.31597 4.34519,-62.22396 13.79277,-88.77441 5.28126,-14.84188 13.34445,-28.54151 20.01668,-42.81227 11.79928,-17.66268 38.41343,-62.88484 59.55089,-72.48821 25.41254,-11.54567 54.11421,-14.02405 81.65877,-18.54031 43.34672,-7.10721 80.22813,-6.47261 123.1261,4.71225 21.23712,5.53719 41.02863,15.59982 61.54294,23.39973 17.71033,11.05942 36.61039,20.40967 53.13098,33.17825 31.01624,23.9721 45.00546,44.12534 66.78754,74.78794 11.98637,16.87319 23.01846,34.45318 33.25695,52.43513 1.57931,1.34455 -17.43552,23.67935 -19.01483,22.3348 z"
       inkscape:export-filename="/Users/Sebram/TEST.png"
       inkscape:export-xdpi="29.719835"
       inkscape:export-ydpi="29.719835" />
    <path
       sodipodi:type="arc"
       style="opacity:0.74000005;fill:#ff0000;fill-opacity:1;stroke:#dcdcdc;stroke-width:2.80200005;stroke-linecap:round;stroke-linejoin:round;stroke-miterlimit:4;stroke-opacity:1;stroke-dasharray:none;filter:url(#filter3772)"
       id="path3744"
       sodipodi:cx="-109.09647"
       sodipodi:cy="149.28581"
       sodipodi:rx="28.284271"
       sodipodi:ry="14.142136"
       d="m -80.812202,149.28581 a 28.284271,14.142136 0 1 1 -56.568538,0 28.284271,14.142136 0 1 1 56.568538,0 z"
       transform="matrix(0.91407432,0.40554672,-0.40554672,0.91407432,65.16818,-32.9288)"
       inkscape:export-filename="/Users/Sebram/TEST.png"
       inkscape:export-xdpi="29.719835"
       inkscape:export-ydpi="29.719835" />
    <path
       style="fill:#800000;stroke:#c3baba;stroke-width:1px;stroke-linecap:butt;stroke-linejoin:miter;stroke-opacity:1;filter:url(#filter3756)"
       d="M 18.04061,176.36198 C -65.48681,159.20012 -194.93,164.99615 -190.05081,103.63099 l 0,0"
       id="path3746"
       sodipodi:nodetypes="ccc"
       inkscape:export-filename="/Users/Sebram/TEST.png"
       inkscape:export-xdpi="29.719835"
       inkscape:export-ydpi="29.719835" />
    <path
       sodipodi:type="arc"
       style="opacity:0.74000005;fill:#800000;fill-opacity:1;stroke:#c3baba;stroke-width:2.80200005;stroke-linecap:round;stroke-linejoin:round;stroke-miterlimit:4;stroke-opacity:1;stroke-dasharray:none"
       id="path3748"
       sodipodi:cx="665.69055"
       sodipodi:cy="162.41779"
       sodipodi:rx="15.152288"
       sodipodi:ry="13.131983"
       d="m 680.84284,162.41779 a 15.152288,13.131983 0 1 1 -30.30458,0 15.152288,13.131983 0 1 1 30.30458,0 z"
       inkscape:export-filename="/Users/Sebram/TEST.png"
       inkscape:export-xdpi="29.719835"
       inkscape:export-ydpi="29.719835" />
    <path
       style="fill:none;stroke:#d7d1d1;stroke-width:3;stroke-linecap:butt;stroke-linejoin:miter;stroke-opacity:1;stroke-miterlimit:4;stroke-dasharray:none"
       d="m 854.58905,137.16398 c -248.35849,647.69893 -7.69194,474.1258 4.04061,468.71078"
       id="path3750"
       sodipodi:nodetypes="cc"
       inkscape:export-filename="/Users/Sebram/TEST.png"
       inkscape:export-xdpi="29.719835"
       inkscape:export-ydpi="29.719835" />
    <path
       style="fill:none;stroke:#000000;stroke-width:1px;stroke-linecap:butt;stroke-linejoin:miter;stroke-opacity:1"
       d="M -197.9899,252.32137 C -382.61204,-504.6318 114.18809,837.41283 -315.16759,353.33662 269.97015,505.60985 -82.227814,266.91427 -197.9899,258.38228"
       id="path3776"
       sodipodi:nodetypes="ccc"
       inkscape:export-filename="/Users/Sebram/TEST.png"
       inkscape:export-xdpi="29.719835"
       inkscape:export-ydpi="29.719835" />
    <path
       style="fill:none;stroke:#000000;stroke-width:1px;stroke-linecap:butt;stroke-linejoin:miter;stroke-opacity:1"
       d="m -129.29953,490.71737 -135.36044,94.95434"
       id="path3778"
       inkscape:export-filename="/Users/Sebram/TEST.png"
       inkscape:export-xdpi="29.719835"
       inkscape:export-ydpi="29.719835" />
    <path
       style="opacity:0.74000005;fill:#800000;fill-opacity:1;stroke:#d7d1d1;stroke-width:6.06091547;stroke-linecap:round;stroke-linejoin:round;stroke-miterlimit:4;stroke-opacity:1;stroke-dasharray:none"
       d="m -68.32616,364.25209 c 1.666752,-1.07714 2.12132,-2.04191 1.010152,-2.14394 -8.730906,-0.80171 -17.162996,-6.66093 -17.186088,-11.94211 -0.0074,-1.6976 -4.520043,-8.99594 -10.028045,-16.21853 -5.507999,-7.22259 -10.047619,-14.19264 -10.088029,-15.489 -0.0404,-1.29636 -0.8486,-2.66007 -1.79597,-3.03046 -2.34646,-0.91739 -20.87373,-23.90694 -19.26659,-23.90694 0.70443,0 0.15731,-1.3537 -1.21582,-3.00822 -1.37312,-1.65451 -3.2571,-2.53819 -4.18662,-1.96372 -1.80349,1.11462 -6.88517,-6.87152 -5.34956,-8.40713 0.50114,-0.50115 5.61998,0.94487 11.37519,3.21336 21.9914,8.66819 25.629015,11.45196 36.305239,27.78331 5.651187,8.64459 10.967929,15.45437 11.81498,15.13285 0.847052,-0.32152 2.102265,2.40589 2.789367,6.06092 0.6871,3.65502 1.382874,5.73635 1.546166,4.62519 0.163289,-1.11117 1.178185,-0.6566 2.255323,1.01015 1.664681,2.57591 1.963072,2.48808 1.989368,-0.58556 0.03736,-4.36706 7.581569,-19.61749 9.704539,-19.61749 0.830645,0 4.909241,2.30966 9.063546,5.13259 l 7.553282,5.13258 -4.510174,7.8366 c -2.480595,4.31013 -5.441245,7.30953 -6.579222,6.66534 -1.137979,-0.64419 -1.395085,-0.4273 -0.57135,0.48198 0.823735,0.90929 0.485131,2.87332 -0.752453,4.36452 -1.237582,1.4912 -1.71356,2.71127 -1.057727,2.71127 0.655834,0 0.435724,2.04556 -0.489134,4.54569 -0.924857,2.50012 -2.941119,4.56118 -4.480582,4.58012 -1.588038,0.0196 -2.729622,1.98622 -2.638611,4.54569 0.116713,3.28243 -0.983903,4.50282 -4.04061,4.48031 -3.452671,-0.0254 -3.661191,-0.37981 -1.170567,-1.98937 z"
       id="path3780"
       inkscape:export-filename="/Users/Sebram/TEST.png"
       inkscape:export-xdpi="29.719835"
       inkscape:export-ydpi="29.719835" />
    <path
       style="opacity:0.74000005;fill:#800000;fill-opacity:1;stroke:#d7d1d1;stroke-width:6.06091547;stroke-linecap:round;stroke-linejoin:round;stroke-miterlimit:4;stroke-opacity:1;stroke-dasharray:none"
       d="m -235.00133,428.90185 c -3.1937,-3.3335 -5.11713,-6.06091 -4.27428,-6.06091 0.84284,0 0.16873,-1.36371 -1.49802,-3.03046 -1.66675,-1.66675 -3.90727,-3.03046 -4.97892,-3.03046 -1.07165,0 -2.48752,-1.40475 -3.14636,-3.12168 -0.65885,-1.71692 -4.18384,-4.36928 -7.83331,-5.89413 -3.64948,-1.52485 -8.43523,-4.77937 -10.63501,-7.23227 l -3.99959,-4.45982 7.07107,1.5059 c 8.0677,1.71815 17.70016,6.30897 21.7638,10.37261 1.52266,1.52266 3.38539,2.77469 4.13939,2.78228 2.24389,0.0226 9.88898,12.68537 11.27434,18.67402 1.66076,7.17914 -0.66386,7.0302 -7.88311,-0.50508 z"
       id="path3782"
       inkscape:export-filename="/Users/Sebram/TEST.png"
       inkscape:export-xdpi="29.719835"
       inkscape:export-ydpi="29.719835" />
    <path
       style="opacity:0.74000005;fill:#800000;fill-opacity:1;stroke:#d7d1d1;stroke-width:3;stroke-linecap:round;stroke-linejoin:round;stroke-miterlimit:4;stroke-opacity:1;stroke-dasharray:none"
       id="path3784"
       d="m -167.2246,658.83115 c -7.8427,-2.89979 -16.25211,-4.57908 -23.52811,-8.69936 -11.75346,-6.65579 -23.2117,-14.1723 -33.10332,-23.37008 -32.18532,-29.92767 -57.07678,-65.55831 -74.23364,-106.21588 -22.37461,-53.02236 -29.64395,-108.77219 -40.23188,-164.72903 4.00695,-28.55598 2.46621,-58.46117 12.02085,-85.66794 9.59737,-27.32842 28.59264,-50.41841 44.31404,-74.74514 28.71205,-44.428 55.81315,-80.12982 93.53901,-117.135863 17.48711,-17.153461 34.42921,-35.659223 55.47015,-48.20192 20.75367,-12.371449 45.27218,-16.896726 67.90827,-25.3450884 21.79028,-4.91607386 43.14087,-12.5543433 65.37082,-14.7482216 43.454497,-4.288532 125.1862,9.30933086 159.93723,23.066225 20.1773,7.987594 38.21341,39.9285 44.05616,59.632852 2.54539,8.584185 1.83228,17.813247 2.74842,26.71987 -3.57274,19.812746 -1.68832,27.903546 -15.01416,42.585276 -8.08255,8.90494 -14.64073,9.67101 -25.11296,13.03836 -3.94742,1.61069 -26.72605,-54.21422 -22.77864,-55.824913 l 0,0 c 3.49353,0.07235 7.05491,-0.471984 10.48058,0.21704 6.44197,1.295713 14.45655,5.181683 16.69052,12.222473 1.61854,5.10113 0.54532,10.68959 0.81799,16.03438 -12.77144,17.77832 -10.33826,17.41589 -32.78875,31.17297 -10.55607,6.46849 -25.79093,7.03209 -32.9553,17.12882 -3.42032,4.82024 15.86623,10.89854 10.84992,14.02424 -8.86038,5.52098 -74.103864,3.56033 -81.935919,3.50131 -11.330929,1.41289 -22.599971,3.47053 -33.992791,4.23869 -10.70515,0.72179 -21.97661,-3.07148 -32.1876,0.22352 -8.34515,2.6929 -16.0667,9.04461 -20.31163,16.71754 -19.45642,35.16844 -2.01734,48.85767 -2.81437,87.85948 -0.40696,19.91381 -5.68083,39.42881 -8.52124,59.14321 -6.75528,21.55532 -14.78956,42.75075 -20.26583,64.66595 -5.3521,21.4183 -7.42917,43.54079 -12.16178,65.10444 -10.52535,47.9577 -15.18009,59.57138 -29.9945,103.4804 -11.80097,34.97735 -8.4669,25.49696 -19.55775,54.58401 0.65919,1.6061 -22.0546,10.92849 -22.71379,9.32238 z"
       inkscape:export-filename="/Users/Sebram/TEST.png"
       inkscape:export-xdpi="29.719835"
       inkscape:export-ydpi="29.719835" />
    <path
       style="opacity:0.74000005;fill:#800000;fill-opacity:1;stroke:#d7d1d1;stroke-width:3;stroke-linecap:round;stroke-linejoin:round;stroke-miterlimit:4;stroke-opacity:1;stroke-dasharray:none"
       id="path3786"
       d="m 13.427541,485.82079 c 10.292171,14.53593 26.528488,24.97013 42.085879,32.98715 9.699852,4.99852 19.599993,9.68489 29.82585,13.49332 13.577261,5.05661 27.63868,8.70338 41.45801,13.05507 48.12207,8.44552 64.46471,13.97174 115.36242,10.99608 16.30847,-0.95345 32.34779,-4.75485 48.32328,-8.1694 53.30071,-11.3923 83.11221,-18.77911 132.45304,-42.02366 19.07139,-8.98456 36.78145,-20.61274 55.17217,-30.91911 15.09778,-11.68339 31.15129,-22.22648 45.29333,-35.05018 32.95311,-29.88116 59.40764,-67.02506 72.54519,-109.78003 7.94426,-25.85384 6.38383,-33.38665 6.76491,-59.04744 -1.98241,-23.32632 -9.06191,-45.24468 -22.84404,-64.22624 -3.67247,-5.05793 -6.62775,-7.95883 -10.77878,-12.36646 -3.29983,-2.41139 -6.06923,-5.72635 -9.86985,-7.42631 -2.09019,-0.93492 -4.72421,-1.31575 -6.94145,-1.77579 -1.43779,-0.29325 -2.88479,-0.54445 -4.31335,-0.87976 -8.37881,-1.96671 -5.67368,-1.71607 -15.35979,-3.81451 -15.65196,-3.39091 -31.52458,-5.78359 -47.32516,-8.33689 -50.39869,-8.2143 -101.11627,-13.87059 -152.04219,-17.41572 16.76527,-0.82256 -56.65071,-1.74091 -42.48622,-1.36741 14.97865,0.39497 30.01259,-0.40984 44.94358,0.84776 4.97634,0.41915 -9.95254,0.91487 -14.88694,1.68384 -11.02299,1.7178 -13.09175,2.7313 -23.25776,5.87806 -11.31434,4.20719 -22.24554,10.22095 -28.87283,20.69516 -0.97833,1.54621 -1.69489,3.2433 -2.54234,4.86495 -2.69687,5.58641 -4.04574,11.65365 -6.58672,17.29898 0,0 -76.6388,-3.9528 -76.6388,-3.9528 l 0,0 c 1.00986,-1.45728 2.18075,-2.80371 3.12317,-4.30549 2.52831,-4.02891 3.87228,-8.65973 6.39415,-12.6963 2.30165,-4.13995 4.20343,-7.90059 7.12752,-11.68522 7.52772,-9.74308 18.27378,-15.00357 29.6832,-18.98201 11.31373,-3.38322 14.53296,-4.72787 26.63346,-6.64387 30.33669,-4.80354 72.0935,-2.61769 96.56343,-2.63203 6.29666,-0.004 12.59081,0.32786 18.87794,0.67403 6.88431,0.37905 13.75311,1.00084 20.62966,1.50126 51.32673,4.62479 102.41653,11.24289 153.55809,17.54983 27.49389,3.29477 55.12406,6.32437 82.22088,12.15667 1.19551,0.48414 2.43334,0.87465 3.58651,1.45242 5.00993,2.51009 7.63774,8.41647 10.74262,12.69821 2.70765,4.99326 4.66751,8.32047 6.8504,13.78259 8.6585,21.66565 10.92639,44.74112 9.23331,67.92956 -4.47087,26.9242 -4.02537,34.39558 -16.09182,60.60873 -19.96895,43.38054 -52.31951,80.68597 -89.31745,110.46967 -15.85293,12.76176 -33.37754,23.29486 -50.06631,34.94229 -50.5596,26.40647 -68.73088,38.62185 -123.96618,56.15826 -56.93548,18.07619 -99.15163,23.00276 -160.25716,26.01047 -22.94855,1.12957 -46.00704,0.61017 -68.92039,-1.08996 -20.55238,-1.52495 -40.82013,-5.71132 -61.230197,-8.56699 C 71.319302,546.2926 54.17539,542.86405 37.39028,538.07465 24.421664,534.37423 11.672339,529.88127 -0.88347108,524.9589 -22.890113,516.33143 -43.279696,504.177 -64.022167,493.02332 c 0,0 77.449708,-7.20253 77.449708,-7.20253 z"
       inkscape:export-filename="/Users/Sebram/TEST.png"
       inkscape:export-xdpi="29.719835"
       inkscape:export-ydpi="29.719835" />
    <path
       style="opacity:0.74000005000000002;fill:#d40000;fill-opacity:1;stroke:#d7d1d1;stroke-width:3;stroke-linecap:round;stroke-linejoin:round;stroke-miterlimit:4;stroke-opacity:1;stroke-dasharray:none"
       id="path3788"
       d="M -0.63338022,299.99917 C 1.9744186,281.71775 0.8827149,263.11717 2.0216555,244.74074 2.5627352,236.0106 3.6073315,227.31897 4.4001695,218.60808 6.5209045,208.02855 7.4768131,197.14709 10.762374,186.8695 20.219301,157.28719 35.549256,130.35962 53.537026,105.18561 64.725721,89.526953 76.684234,74.341936 89.806194,60.263778 116.97464,31.115565 152.89945,2.297138 183.32639,-23.375139 c 9.56261,-7.45875 61.41586,-48.721468 75.38065,-56.83998 30.51807,-17.741855 69.97576,-15.788305 102.46586,-2.349996 20.5076,8.482198 -0.6028,70.221717 -0.92617,71.700028 -7.65262,18.7540681 -14.71351,37.760622 -22.95785,56.262205 -9.18935,20.622333 -19.12082,40.91416 -29.31953,61.056432 -21.56644,42.59333 -38.00256,71.8642 -63.59548,111.78703 -24.16593,37.69682 -31.81705,46.60294 -57.54142,80.67474 -16.69556,21.37769 -34.46649,41.87087 -52.41317,62.19514 -0.56309,0.63769 -13.06838,14.56469 -14.80143,16.88748 -1.14319,1.53218 -1.93945,3.29489 -2.90918,4.94234 0.40511,3.96243 -0.59281,2.54242 3.50857,4.11936 2.55708,0.98317 5.00355,2.34559 7.68185,2.92181 5.36035,1.15324 21.77851,2.32515 16.29621,2.23689 -52.703109,-0.84848 -17.83494,-4.6124 13.58693,-12.09706 14.9578,-6.03657 30.36992,-11.05103 44.8734,-18.10971 39.46645,-19.20788 74.69082,-45.68592 104.60358,-77.69991 17.00104,-18.19527 20.10835,-24.28864 33.04365,-43.59436 2.6053,-5.12057 5.21059,-10.24113 7.81589,-15.3617 0,0 63.02567,3.80967 63.02567,3.80967 l 0,0 c -4.49545,5.17598 -8.99091,10.35195 -13.48637,15.52792 -17.12628,17.32843 -25.90952,26.75576 -44.96739,43.44365 -44.86297,39.28393 -94.24437,73.4725 -148.76858,97.98057 -56.89753,19.54336 -32.22767,14.68574 -120.701475,14.95717 -9.203172,0.0282 -38.346878,-1.13374 -40.965188,-16.34724 -0.392306,-2.27947 1.109861,-4.49085 1.664792,-6.73628 1.95854,-1.98183 3.718603,-4.18175 5.875621,-5.9455 4.266164,-3.48836 20.697302,-13.92155 23.796073,-16.07873 25.996182,-18.09699 50.617677,-38.12033 73.638867,-59.88603 11.46569,-11.67177 23.50928,-22.80268 34.39708,-35.01531 27.20024,-30.50995 50.64775,-61.85562 71.68367,-97.01078 22.55347,-37.6913 41.99564,-77.02572 53.88355,-119.518581 5.08324,-18.169839 6.64917,-37.144556 9.97376,-55.716834 -1.11446,-13.817922 -0.14929,-27.963965 -3.34338,-41.453767 -1.96537,-8.300433 -16.79876,-15.741569 -11.84315,-22.684321 6.75052,-9.457413 44.86765,-4.40644 33.88215,-8.192078 -11.59893,-3.997027 -24.6416,2.918901 -36.0436,7.447236 -23.61454,9.378576 -69.60263,42.117555 -88.93688,55.112085 -15.87255,13.0043332 -32.63853,24.988862 -47.61766,39.013 -39.25962,36.756649 -73.026073,80.585425 -91.11659,131.74174 -10.483319,29.6447 -9.082753,39.37414 -10.573402,68.7781 0.873767,8.56304 1.474822,17.15832 2.621302,25.68913 2.481458,18.46421 7.083329,36.72719 12.724027,54.44783 0,0 -77.55502722,1.28092 -77.55502722,1.28092 z"
       inkscape:export-filename="/Users/Sebram/TEST.png"
       inkscape:export-xdpi="29.719835"
       inkscape:export-ydpi="29.719835" />
    <path
       style="opacity:0.74000005;fill:#d40000;fill-opacity:1;stroke:#d7d1d1;stroke-width:3;stroke-linecap:round;stroke-linejoin:round;stroke-miterlimit:4;stroke-opacity:1;stroke-dasharray:none"
       id="path3790"
       d="m -56.353507,521.70929 c 1.952307,2.39441 3.632662,5.03908 5.856921,7.18323 33.206795,32.01076 86.885466,52.69491 130.653445,61.97564 24.330481,5.15912 49.235151,7.08902 73.852731,10.63352 29.95539,-1.93766 60.26578,-0.82331 89.86616,-5.813 34.46614,-5.8099 68.57243,-14.62953 101.46896,-26.44003 97.2601,-34.91828 187.14406,-95.66664 258.93892,-169.62423 22.63395,-23.31577 41.75153,-49.80453 62.6273,-74.70679 63.25785,-104.28684 36.27513,-51.41133 82.05031,-158.05927 0,0 7.15771,0.31216 7.15771,0.31216 l 0,0 c -53.06314,105.63679 -24.0077,52.93119 -87.63601,157.85695 -56.37177,67.26316 -66.90865,87.08493 -137.37574,141.55475 -83.67021,64.6756 -180.74344,112.02513 -285.67338,129.34246 -33.78771,5.57623 -68.32154,4.79396 -102.48231,7.19093 -29.01943,-3.00612 -58.21985,-4.60155 -87.058301,-9.01835 -23.921157,-3.66368 -47.6170659,-8.92936 -70.993752,-15.18835 -41.181176,-11.02604 -79.36937,-30.10616 -116.695317,-50.18376 0,0 75.442353,-7.01586 75.442353,-7.01586 z"
       inkscape:export-filename="/Users/Sebram/TEST.png"
       inkscape:export-xdpi="29.719835"
       inkscape:export-ydpi="29.719835" />
    <path
       sodipodi:type="star"
       style="opacity:0.74000005;fill:#d40000;fill-opacity:1;stroke:#d7d1d1;stroke-width:3;stroke-linecap:round;stroke-linejoin:round;stroke-miterlimit:4;stroke-opacity:1;stroke-dasharray:none"
       id="path3792"
       sodipodi:sides="5"
       sodipodi:cx="-428.30469"
       sodipodi:cy="26.047197"
       sodipodi:r1="120.30573"
       sodipodi:r2="60.152866"
       sodipodi:arg1="0.7140907"
       sodipodi:arg2="1.3424092"
       inkscape:flatsided="false"
       inkscape:rounded="0"
       inkscape:randomized="0"
       d="m -337.39096,104.8391 -77.29471,-20.201036 -60.46068,52.221266 -4.67305,-79.754102 -68.34875,-41.364267 74.4066,-29.089711 18.21883,-77.785786 50.65886,61.775668 79.60861,-6.709993 -43.0977,67.269174 30.98199,73.638787 z"
       transform="matrix(0.93708673,0,0,0.88836764,503.66727,-98.59067)" />
  </g>
</svg>
